<?xml version="1.0" encoding="UTF-8"?>
<svg width="161px" height="55px" viewBox="0 0 161 55" version="1.1" xmlns="http://www.w3.org/2000/svg" xmlns:xlink="http://www.w3.org/1999/xlink">
    <title>Logo</title>
    <g id="Auswahl" stroke="none" stroke-width="1" fill="none" fill-rule="evenodd">
        <g id="museum4.0_Desktop_Home" transform="translate(-30.000000, -1032.000000)" fill="#000000" fill-rule="nonzero">
            <g id="Logo" transform="translate(30.000000, 1032.000000)">
                <path d="M1.7933138,14.1175767 C1.55166158,14.1175767 1.34816498,14.0349062 1.18282399,13.8695652 C1.01748301,13.7042242 0.934812511,13.5007276 0.934812511,13.2590754 L0.934812511,1.86962502 C0.934812511,1.52622451 1.05563862,1.23051851 1.29729083,0.982507027 C1.53894305,0.734495545 1.83146941,0.610489803 2.17486992,0.610489803 L2.80443753,0.610489803 C3.05880828,0.610489803 3.2909216,0.686801029 3.50077747,0.839423479 C3.71063334,0.99204593 3.86643542,1.18282399 3.96818372,1.41175767 L8.29884576,12.2097961 L12.6295078,1.41175767 C12.7312561,1.18282399 12.8870582,0.99204593 13.0969141,0.839423479 C13.3067699,0.686801029 13.5388832,0.610489803 13.793254,0.610489803 L14.4228216,0.610489803 C14.7662221,0.610489803 15.0587485,0.734495545 15.3004007,0.982507027 C15.5420529,1.23051851 15.662879,1.52622451 15.662879,1.86962502 L15.662879,13.2590754 C15.662879,13.5007276 15.5802085,13.7042242 15.4148675,13.8695652 C15.2495265,14.0349062 15.0460299,14.1175767 14.8043777,14.1175767 C14.5627255,14.1175767 14.3560493,14.0349062 14.184349,13.8695652 C14.0126488,13.7042242 13.9267986,13.5007276 13.9267986,13.2590754 L13.9267986,2.42288141 L9.51982537,13.3163088 C9.41807707,13.557961 9.25591571,13.7519187 9.03334131,13.8981819 C8.8107669,14.0444451 8.56593505,14.1175767 8.29884576,14.1175767 C8.03175647,14.1175767 7.78692463,14.0444451 7.56435022,13.8981819 C7.34177581,13.7519187 7.17961446,13.557961 7.07786616,13.3163088 L2.67089289,2.42288141 L2.67089289,13.2590754 C2.67089289,13.5007276 2.58504276,13.7042242 2.4133425,13.8695652 C2.24164225,14.0349062 2.03496601,14.1175767 1.7933138,14.1175767 Z" id="Path"></path>
                <path d="M21.5006878,14.2129657 C20.9410721,14.2129657 20.4227917,14.0984989 19.9458465,13.8695652 C19.4689014,13.6406315 19.0905249,13.3067699 18.8107171,12.8679804 C18.5309092,12.4291908 18.3910053,11.923629 18.3910053,11.3512948 C18.3910053,10.410123 18.7630225,9.65972928 19.507057,9.10011363 C20.2510914,8.54049798 21.341706,8.26069015 22.7789008,8.26069015 L25.0873154,8.26069015 L25.0873154,8.1080677 C25.0873154,7.26864422 24.8806391,6.66451369 24.4672866,6.2956761 C24.0539342,5.92683851 23.4084684,5.74241971 22.5308893,5.74241971 C22.0475849,5.74241971 21.6183342,5.78057532 21.2431374,5.85688655 C20.8679405,5.93319778 20.4514084,6.04766461 19.9935411,6.20028706 C19.8917928,6.22572414 19.8091223,6.23844268 19.7455296,6.23844268 C19.5547515,6.23844268 19.3894105,6.16849072 19.2495066,6.02858681 C19.1096027,5.88868289 19.0396507,5.71698264 19.0396507,5.51348604 C19.0396507,5.17008552 19.2049917,4.92843331 19.5356737,4.78852939 C20.6167494,4.33066204 21.7169029,4.10172837 22.8361342,4.10172837 C23.7137133,4.10172837 24.4545681,4.27978789 25.0586986,4.63590694 C25.6628292,4.992026 26.107978,5.45307298 26.3941451,6.0190479 C26.6803122,6.58502283 26.8233957,7.19869226 26.8233957,7.86005622 L26.8233957,13.2590754 C26.8233957,13.5007276 26.7375456,13.7042242 26.5658453,13.8695652 C26.3941451,14.0349062 26.1874689,14.1175767 25.9458166,14.1175767 C25.7041644,14.1175767 25.5006678,14.0349062 25.3353268,13.8695652 C25.1699858,13.7042242 25.0873154,13.5007276 25.0873154,13.2590754 L25.0873154,12.7630524 C24.1461436,13.7296613 22.950601,14.2129657 21.5006878,14.2129657 Z M22.1493332,12.6867412 C22.7089488,12.6867412 23.2494867,12.5500169 23.7709467,12.2765684 C24.2924068,12.0031198 24.7311963,11.6628989 25.0873154,11.2559057 L25.0873154,9.65337001 L23.0078345,9.65337001 C21.0873353,9.65337001 20.1270857,10.1557522 20.1270857,11.1605167 C20.1270857,11.6183841 20.2828878,11.9872217 20.594492,12.2670295 C20.9060961,12.5468373 21.4243765,12.6867412 22.1493332,12.6867412 Z" id="Shape"></path>
                <path d="M33.099994,14.2129657 C31.2430875,14.2129657 30.3146343,13.3735423 30.3146343,11.6946953 L30.3146343,5.78057532 L28.96011,5.78057532 C28.8583617,5.78057532 28.7725116,5.74559935 28.7025597,5.67564739 C28.6326077,5.60569543 28.5976317,5.5198453 28.5976317,5.418097 C28.5976317,5.29091163 28.6548651,5.18280406 28.769332,5.0937743 L31.3639136,2.55642605 C31.4783805,2.44195921 31.586488,2.38472579 31.6882363,2.38472579 C31.7899847,2.38472579 31.8758348,2.42288141 31.9457867,2.49919263 C32.0157387,2.57550386 32.0507147,2.66453362 32.0507147,2.76628192 L32.0507147,4.29250643 L34.2065068,4.29250643 C34.4227219,4.29250643 34.6007815,4.36245839 34.7406854,4.5023623 C34.8805893,4.64226621 34.9505412,4.82032574 34.9505412,5.03654088 C34.9505412,5.24003748 34.8805893,5.41491737 34.7406854,5.56118055 C34.6007815,5.70744373 34.4227219,5.78057532 34.2065068,5.78057532 L32.0507147,5.78057532 L32.0507147,11.5420728 C32.0507147,12.0380958 32.1683611,12.3528796 32.4036541,12.4864243 C32.638947,12.6199689 32.934653,12.6867412 33.2907721,12.6867412 C33.5451428,12.6867412 33.7995136,12.6485856 34.0538843,12.5722744 C34.1047585,12.5595558 34.1588123,12.5468373 34.2160457,12.5341188 C34.2732791,12.5214002 34.3464107,12.515041 34.4354405,12.515041 C34.6135,12.515041 34.7724817,12.5818133 34.9123856,12.7153579 C35.0522895,12.8489026 35.1222415,13.0110639 35.1222415,13.201842 C35.1222415,13.4943684 34.9759783,13.7169428 34.6834519,13.8695652 C34.187429,14.0984989 33.6596097,14.2129657 33.099994,14.2129657 Z" id="Path"></path>
                <path d="M41.379762,14.2129657 C39.8281004,14.2129657 38.6166597,13.7709966 37.7454399,12.8870582 C36.87422,12.0031198 36.4386101,10.7598828 36.4386101,9.15734705 C36.4386101,8.25433088 36.6039511,7.42126667 36.9346331,6.65815442 C37.2653151,5.89504216 37.7740566,5.27819309 38.4608576,4.8076072 C39.1476586,4.33702131 39.9934414,4.10172837 40.9982058,4.10172837 C41.9393776,4.10172837 42.753364,4.32112314 43.4401651,4.75991268 C44.1269661,5.19870223 44.6484261,5.78375496 45.0045452,6.51507087 C45.3606642,7.24638678 45.5387238,8.04447501 45.5387238,8.90933557 C45.5387238,9.15098778 45.4592329,9.35448438 45.3002512,9.51982537 C45.1412695,9.68516636 44.928234,9.76783685 44.6611447,9.76783685 L38.1937683,9.76783685 C38.2955166,10.6581345 38.6261986,11.3512948 39.1858142,11.8473177 C39.7454299,12.3433407 40.52762,12.5913522 41.5323844,12.5913522 C42.066563,12.5913522 42.5339693,12.540478 42.9346032,12.4387297 C43.3352371,12.3369814 43.7263322,12.1907183 44.1078883,11.9999402 C44.2096366,11.949066 44.3241034,11.923629 44.4512888,11.923629 C44.6547854,11.923629 44.8328449,11.9935809 44.9854674,12.1334848 C45.1380898,12.2733888 45.2144011,12.4514483 45.2144011,12.6676634 C45.2144011,12.9474712 45.0490601,13.1827642 44.7183781,13.3735423 C44.2223551,13.6533501 43.7326914,13.8632059 43.249387,14.0031099 C42.7660826,14.1430138 42.1428742,14.2129657 41.379762,14.2129657 Z M43.8217212,8.35607918 C43.7835656,7.73287084 43.6214042,7.2114108 43.3352371,6.79169906 C43.04907,6.37198732 42.6961306,6.06356279 42.2764189,5.86642545 C41.8567071,5.66928812 41.4306361,5.57071945 40.9982058,5.57071945 C40.5657756,5.57071945 40.1397046,5.66928812 39.7199928,5.86642545 C39.3002811,6.06356279 38.9505213,6.37198732 38.6707135,6.79169906 C38.3909056,7.2114108 38.2319239,7.73287084 38.1937683,8.35607918 L43.8217212,8.35607918 Z" id="Shape"></path>
                <path d="M48.6865618,14.1175767 C48.4449096,14.1175767 48.241413,14.0349062 48.076072,13.8695652 C47.910731,13.7042242 47.8280605,13.5007276 47.8280605,13.2590754 L47.8280605,5.07469649 C47.8280605,4.83304428 47.910731,4.62636804 48.076072,4.45466778 C48.241413,4.28296753 48.4449096,4.1971174 48.6865618,4.1971174 C48.928214,4.1971174 49.1348903,4.28296753 49.3065905,4.45466778 C49.4782908,4.62636804 49.5641409,4.83304428 49.5641409,5.07469649 L49.5641409,5.89504216 C50.4544385,4.69949963 51.4528437,4.10172837 52.5593565,4.10172837 L52.6547455,4.10172837 C52.8963977,4.10172837 53.0967147,4.18439886 53.2556964,4.34973985 C53.4146781,4.51508084 53.494169,4.71857744 53.494169,4.96022965 C53.494169,5.20188187 53.4114985,5.3990192 53.2461575,5.55164165 C53.0808165,5.7042641 52.8709607,5.78057532 52.6165899,5.78057532 L52.5212009,5.78057532 C51.9107111,5.78057532 51.3510954,5.93001814 50.8423539,6.22890377 C50.3336124,6.52778941 49.9075414,6.93796224 49.5641409,7.45942228 L49.5641409,13.2590754 C49.5641409,13.5007276 49.4782908,13.7042242 49.3065905,13.8695652 C49.1348903,14.0349062 48.928214,14.1175767 48.6865618,14.1175767 Z" id="Path"></path>
                <path d="M55.955206,2.30841457 C55.6881167,2.30841457 55.4591831,2.21302554 55.268405,2.02224747 C55.0776269,1.83146941 54.9822379,1.60253573 54.9822379,1.33544644 L54.9822379,1.25913522 C54.9822379,0.99204593 55.0776269,0.763112254 55.268405,0.572334191 C55.4591831,0.381556127 55.6881167,0.286167095 55.955206,0.286167095 L56.0696729,0.286167095 C56.3367622,0.286167095 56.5656958,0.381556127 56.7564739,0.572334191 C56.947252,0.763112254 57.042641,0.99204593 57.042641,1.25913522 L57.042641,1.33544644 C57.042641,1.60253573 56.947252,1.83146941 56.7564739,2.02224747 C56.5656958,2.21302554 56.3367622,2.30841457 56.0696729,2.30841457 L55.955206,2.30841457 Z M55.9933616,14.1175767 C55.7517094,14.1175767 55.5482128,14.0349062 55.3828718,13.8695652 C55.2175308,13.7042242 55.1348604,13.5007276 55.1348604,13.2590754 L55.1348604,5.07469649 C55.1348604,4.83304428 55.2175308,4.62636804 55.3828718,4.45466778 C55.5482128,4.28296753 55.7517094,4.1971174 55.9933616,4.1971174 C56.2477324,4.1971174 56.4575883,4.27978789 56.6229293,4.44512888 C56.7882702,4.61046987 56.8709407,4.82032574 56.8709407,5.07469649 L56.8709407,13.2590754 C56.8709407,13.5007276 56.7850906,13.7042242 56.6133903,13.8695652 C56.4416901,14.0349062 56.2350139,14.1175767 55.9933616,14.1175767 Z" id="Shape"></path>
                <path d="M62.365349,14.2129657 C61.8057333,14.2129657 61.2874529,14.0984989 60.8105077,13.8695652 C60.3335626,13.6406315 59.9551861,13.3067699 59.6753783,12.8679804 C59.3955704,12.4291908 59.2556665,11.923629 59.2556665,11.3512948 C59.2556665,10.410123 59.6276838,9.65972928 60.3717182,9.10011363 C61.1157526,8.54049798 62.2063672,8.26069015 63.643562,8.26069015 L65.9519766,8.26069015 L65.9519766,8.1080677 C65.9519766,7.26864422 65.7453003,6.66451369 65.3319479,6.2956761 C64.9185954,5.92683851 64.2731296,5.74241971 63.3955505,5.74241971 C62.9122461,5.74241971 62.4829954,5.78057532 62.1077986,5.85688655 C61.7326017,5.93319778 61.3160696,6.04766461 60.8582023,6.20028706 C60.756454,6.22572414 60.6737835,6.23844268 60.6101908,6.23844268 C60.4194127,6.23844268 60.2540717,6.16849072 60.1141678,6.02858681 C59.9742639,5.88868289 59.9043119,5.71698264 59.9043119,5.51348604 C59.9043119,5.17008552 60.0696529,4.92843331 60.4003349,4.78852939 C61.4814106,4.33066204 62.5815641,4.10172837 63.7007954,4.10172837 C64.5783745,4.10172837 65.3192293,4.27978789 65.9233598,4.63590694 C66.5274904,4.992026 66.9726392,5.45307298 67.2588063,6.0190479 C67.5449734,6.58502283 67.6880569,7.19869226 67.6880569,7.86005622 L67.6880569,13.2590754 C67.6880569,13.5007276 67.6022068,13.7042242 67.4305065,13.8695652 C67.2588063,14.0349062 67.0521301,14.1175767 66.8104778,14.1175767 C66.5688256,14.1175767 66.365329,14.0349062 66.199988,13.8695652 C66.0346471,13.7042242 65.9519766,13.5007276 65.9519766,13.2590754 L65.9519766,12.7630524 C65.0108048,13.7296613 63.8152622,14.2129657 62.365349,14.2129657 Z M63.0139944,12.6867412 C63.57361,12.6867412 64.1141479,12.5500169 64.6356079,12.2765684 C65.157068,12.0031198 65.5958575,11.6628989 65.9519766,11.2559057 L65.9519766,9.65337001 L63.8724957,9.65337001 C61.9519965,9.65337001 60.9917469,10.1557522 60.9917469,11.1605167 C60.9917469,11.6183841 61.147549,11.9872217 61.4591532,12.2670295 C61.7707573,12.5468373 62.2890377,12.6867412 63.0139944,12.6867412 Z" id="Shape"></path>
                <path d="M71.4654626,14.1175767 C71.2238104,14.1175767 71.0203138,14.0349062 70.8549728,13.8695652 C70.6896318,13.7042242 70.6069613,13.5007276 70.6069613,13.2590754 L70.6069613,0.877579092 C70.6069613,0.635926878 70.6896318,0.429250643 70.8549728,0.257550386 C71.0203138,0.0858501286 71.2238104,0 71.4654626,0 C71.7198333,0 71.9296892,0.0826704942 72.0950302,0.248011483 C72.2603712,0.413352471 72.3430417,0.623208341 72.3430417,0.877579092 L72.3430417,13.2590754 C72.3430417,13.5007276 72.2571916,13.7042242 72.0854913,13.8695652 C71.913791,14.0349062 71.7071148,14.1175767 71.4654626,14.1175767 Z" id="Path"></path>
                <path d="M76.1776808,2.30841457 C75.9105915,2.30841457 75.6816578,2.21302554 75.4908797,2.02224747 C75.3001017,1.83146941 75.2047126,1.60253573 75.2047126,1.33544644 L75.2047126,1.25913522 C75.2047126,0.99204593 75.3001017,0.763112254 75.4908797,0.572334191 C75.6816578,0.381556127 75.9105915,0.286167095 76.1776808,0.286167095 L76.2921476,0.286167095 C76.5592369,0.286167095 76.7881706,0.381556127 76.9789486,0.572334191 C77.1697267,0.763112254 77.2651157,0.99204593 77.2651157,1.25913522 L77.2651157,1.33544644 C77.2651157,1.60253573 77.1697267,1.83146941 76.9789486,2.02224747 C76.7881706,2.21302554 76.5592369,2.30841457 76.2921476,2.30841457 L76.1776808,2.30841457 Z M76.2158364,14.1175767 C75.9741842,14.1175767 75.7706876,14.0349062 75.6053466,13.8695652 C75.4400056,13.7042242 75.3573351,13.5007276 75.3573351,13.2590754 L75.3573351,5.07469649 C75.3573351,4.83304428 75.4400056,4.62636804 75.6053466,4.45466778 C75.7706876,4.28296753 75.9741842,4.1971174 76.2158364,4.1971174 C76.4702071,4.1971174 76.680063,4.27978789 76.845404,4.44512888 C77.010745,4.61046987 77.0934155,4.82032574 77.0934155,5.07469649 L77.0934155,13.2590754 C77.0934155,13.5007276 77.0075653,13.7042242 76.8358651,13.8695652 C76.6641648,14.0349062 76.4574886,14.1175767 76.2158364,14.1175767 Z" id="Shape"></path>
                <path d="M83.2555469,14.2129657 C81.9836932,14.2129657 80.8263062,13.9267986 79.7833862,13.3544644 C79.567171,13.201842 79.4590635,12.9919861 79.4590635,12.7248968 C79.4590635,12.5214002 79.5290154,12.3433407 79.6689193,12.1907183 C79.8088232,12.0380958 79.9868828,11.9617846 80.2030979,11.9617846 C80.3175647,11.9617846 80.4320316,11.9872217 80.5464984,12.0380958 C80.9534916,12.2161553 81.3604848,12.3560592 81.767478,12.4578075 C82.1744712,12.5595558 82.6323386,12.61043 83.1410801,12.61043 C84.5528377,12.61043 85.2587166,12.1589219 85.2587166,11.2559057 C85.2587166,10.9633794 85.0965552,10.740805 84.7722325,10.5881825 C84.4479098,10.4355601 83.9169109,10.2638598 83.1792357,10.0730818 C82.428842,9.89502223 81.8088133,9.71060343 81.3191496,9.51982537 C80.8294859,9.32904731 80.4097741,9.03970058 80.0600144,8.65178518 C79.7102546,8.26386978 79.5353747,7.75194865 79.5353747,7.11602177 C79.5353747,6.22572414 79.8565178,5.5007675 80.4988039,4.94115184 C81.14109,4.38153619 82.0600044,4.10172837 83.2555469,4.10172837 C84.2348743,4.10172837 85.1569683,4.26071009 86.0218288,4.57867352 C86.1998884,4.62954767 86.3366126,4.72493671 86.4320017,4.86484062 C86.5273907,5.00474453 86.5750852,5.15100771 86.5750852,5.30363017 C86.5750852,5.50712677 86.5019536,5.68518629 86.3556904,5.83780874 C86.2094273,5.99043119 86.0281881,6.06674242 85.811973,6.06674242 C85.7483803,6.06674242 85.6657098,6.05402388 85.5639615,6.02858681 C84.8262863,5.79965313 84.1013297,5.68518629 83.3890916,5.68518629 C82.7022905,5.68518629 82.1649323,5.80919203 81.7770169,6.05720352 C81.3891015,6.305215 81.1951438,6.62635807 81.1951438,7.02063274 C81.1951438,7.40218886 81.3732034,7.68199669 81.7293224,7.86005622 C82.0854415,8.03811574 82.6386978,8.209816 83.3890916,8.37515699 C84.1394853,8.56593505 84.7499751,8.75353348 85.220561,8.93795228 C85.6911469,9.12237107 86.0949604,9.4117178 86.4320017,9.80599246 C86.7690429,10.2002671 86.9375635,10.7280864 86.9375635,11.3894504 C86.9375635,12.2034368 86.6164205,12.8775193 85.9741343,13.4116979 C85.3318482,13.9458764 84.4256524,14.2129657 83.2555469,14.2129657 Z" id="Path"></path>
                <path d="M90.0854016,2.30841457 C89.8183123,2.30841457 89.5893786,2.21302554 89.3986006,2.02224747 C89.2078225,1.83146941 89.1124335,1.60253573 89.1124335,1.33544644 L89.1124335,1.25913522 C89.1124335,0.99204593 89.2078225,0.763112254 89.3986006,0.572334191 C89.5893786,0.381556127 89.8183123,0.286167095 90.0854016,0.286167095 L90.1998684,0.286167095 C90.4669577,0.286167095 90.6958914,0.381556127 90.8866695,0.572334191 C91.0774475,0.763112254 91.1728366,0.99204593 91.1728366,1.25913522 L91.1728366,1.33544644 C91.1728366,1.60253573 91.0774475,1.83146941 90.8866695,2.02224747 C90.6958914,2.21302554 90.4669577,2.30841457 90.1998684,2.30841457 L90.0854016,2.30841457 Z M90.1235572,14.1175767 C89.881905,14.1175767 89.6784084,14.0349062 89.5130674,13.8695652 C89.3477264,13.7042242 89.2650559,13.5007276 89.2650559,13.2590754 L89.2650559,5.07469649 C89.2650559,4.83304428 89.3477264,4.62636804 89.5130674,4.45466778 C89.6784084,4.28296753 89.881905,4.1971174 90.1235572,4.1971174 C90.377928,4.1971174 90.5877838,4.27978789 90.7531248,4.44512888 C90.9184658,4.61046987 91.0011363,4.82032574 91.0011363,5.07469649 L91.0011363,13.2590754 C91.0011363,13.5007276 90.9152862,13.7042242 90.7435859,13.8695652 C90.5718857,14.0349062 90.3652094,14.1175767 90.1235572,14.1175767 Z" id="Shape"></path>
                <path d="M98.3651695,14.2129657 C96.813508,14.2129657 95.6020673,13.7709966 94.7308474,12.8870582 C93.8596276,12.0031198 93.4240177,10.7598828 93.4240177,9.15734705 C93.4240177,8.25433088 93.5893587,7.42126667 93.9200407,6.65815442 C94.2507226,5.89504216 94.7594641,5.27819309 95.4462652,4.8076072 C96.1330662,4.33702131 96.978849,4.10172837 97.9836134,4.10172837 C98.9247852,4.10172837 99.7387716,4.32112314 100.425573,4.75991268 C101.112374,5.19870223 101.633834,5.78375496 101.989953,6.51507087 C102.346072,7.24638678 102.524131,8.04447501 102.524131,8.90933557 C102.524131,9.15098778 102.44464,9.35448438 102.285659,9.51982537 C102.126677,9.68516636 101.913642,9.76783685 101.646552,9.76783685 L95.1791759,9.76783685 C95.2809242,10.6581345 95.6116062,11.3512948 96.1712218,11.8473177 C96.7308375,12.3433407 97.5130275,12.5913522 98.517792,12.5913522 C99.0519706,12.5913522 99.5193768,12.540478 99.9200108,12.4387297 C100.320645,12.3369814 100.71174,12.1907183 101.093296,11.9999402 C101.195044,11.949066 101.309511,11.923629 101.436696,11.923629 C101.640193,11.923629 101.818252,11.9935809 101.970875,12.1334848 C102.123497,12.2733888 102.199809,12.4514483 102.199809,12.6676634 C102.199809,12.9474712 102.034468,13.1827642 101.703786,13.3735423 C101.207763,13.6533501 100.718099,13.8632059 100.234795,14.0031099 C99.7514901,14.1430138 99.1282818,14.2129657 98.3651695,14.2129657 Z M100.807129,8.35607918 C100.768973,7.73287084 100.606812,7.2114108 100.320645,6.79169906 C100.034478,6.37198732 99.6815382,6.06356279 99.2618264,5.86642545 C98.8421147,5.66928812 98.4160437,5.57071945 97.9836134,5.57071945 C97.5511831,5.57071945 97.1251121,5.66928812 96.7054004,5.86642545 C96.2856887,6.06356279 95.9359289,6.37198732 95.656121,6.79169906 C95.3763132,7.2114108 95.2173315,7.73287084 95.1791759,8.35607918 L100.807129,8.35607918 Z" id="Shape"></path>
                <path d="M105.671969,14.1175767 C105.430317,14.1175767 105.226821,14.0349062 105.06148,13.8695652 C104.896139,13.7042242 104.813468,13.5007276 104.813468,13.2590754 L104.813468,5.07469649 C104.813468,4.83304428 104.896139,4.62636804 105.06148,4.45466778 C105.226821,4.28296753 105.430317,4.1971174 105.671969,4.1971174 C105.913622,4.1971174 106.120298,4.28296753 106.291998,4.45466778 C106.463698,4.62636804 106.549548,4.83304428 106.549548,5.07469649 L106.549548,5.89504216 C107.439846,4.69949963 108.438251,4.10172837 109.544764,4.10172837 L109.640153,4.10172837 C109.881805,4.10172837 110.082122,4.18439886 110.241104,4.34973985 C110.400086,4.51508084 110.479577,4.71857744 110.479577,4.96022965 C110.479577,5.20188187 110.396906,5.3990192 110.231565,5.55164165 C110.066224,5.7042641 109.856368,5.78057532 109.601997,5.78057532 L109.506608,5.78057532 C108.896119,5.78057532 108.336503,5.93001814 107.827761,6.22890377 C107.31902,6.52778941 106.892949,6.93796224 106.549548,7.45942228 L106.549548,13.2590754 C106.549548,13.5007276 106.463698,13.7042242 106.291998,13.8695652 C106.120298,14.0349062 105.913622,14.1175767 105.671969,14.1175767 Z" id="Path"></path>
                <path d="M115.439806,14.2129657 C114.740287,14.2129657 114.132976,14.0476247 113.617876,13.7169428 C113.102775,13.3862608 112.7085,12.9347527 112.435052,12.3624185 C112.161603,11.7900843 112.024879,11.1605167 112.024879,10.4737157 L112.024879,5.05561868 C112.024879,4.81396647 112.110729,4.61046987 112.282429,4.44512888 C112.45413,4.27978789 112.660806,4.1971174 112.902458,4.1971174 C113.14411,4.1971174 113.347607,4.27978789 113.512948,4.44512888 C113.678289,4.61046987 113.760959,4.81396647 113.760959,5.05561868 L113.760959,10.2829376 C113.760959,11.8345992 114.460479,12.61043 115.859518,12.61043 C116.495445,12.61043 117.064599,12.445089 117.566982,12.114407 C118.069364,11.7837251 118.543129,11.3385762 118.988278,10.7789606 L118.988278,5.05561868 C118.988278,4.81396647 119.074128,4.61046987 119.245829,4.44512888 C119.417529,4.27978789 119.624205,4.1971174 119.865857,4.1971174 C120.10751,4.1971174 120.311006,4.27978789 120.476347,4.44512888 C120.641688,4.61046987 120.724359,4.81396647 120.724359,5.05561868 L120.724359,13.2399976 C120.724359,13.4816498 120.641688,13.6883261 120.476347,13.8600263 C120.311006,14.0317266 120.10751,14.1175767 119.865857,14.1175767 C119.624205,14.1175767 119.417529,14.0317266 119.245829,13.8600263 C119.074128,13.6883261 118.988278,13.4816498 118.988278,13.2399976 L118.988278,12.4578075 C118.504974,12.9919861 117.983514,13.4180571 117.423898,13.7360206 C116.864282,14.053984 116.202918,14.2129657 115.439806,14.2129657 Z" id="Path"></path>
                <path d="M124.597153,14.1175767 C124.355501,14.1175767 124.152004,14.0349062 123.986663,13.8695652 C123.821322,13.7042242 123.738652,13.5007276 123.738652,13.2590754 L123.738652,5.07469649 C123.738652,4.83304428 123.821322,4.62636804 123.986663,4.45466778 C124.152004,4.28296753 124.355501,4.1971174 124.597153,4.1971174 C124.838805,4.1971174 125.045482,4.28296753 125.217182,4.45466778 C125.388882,4.62636804 125.474732,4.83304428 125.474732,5.07469649 L125.474732,5.85688655 C125.958037,5.32270797 126.479497,4.89663696 127.039112,4.57867352 C127.598728,4.26071009 128.260092,4.10172837 129.023204,4.10172837 C129.722724,4.10172837 130.330034,4.26706935 130.845135,4.59775133 C131.360236,4.92843331 131.75451,5.37994139 132.027959,5.95227558 C132.301407,6.52460977 132.438132,7.15417738 132.438132,7.84097841 L132.438132,13.2590754 C132.438132,13.5007276 132.352282,13.7042242 132.180581,13.8695652 C132.008881,14.0349062 131.802205,14.1175767 131.560553,14.1175767 C131.3189,14.1175767 131.115404,14.0349062 130.950063,13.8695652 C130.784722,13.7042242 130.702051,13.5007276 130.702051,13.2590754 L130.702051,8.03175647 C130.702051,6.48009489 130.002532,5.7042641 128.603493,5.7042641 C127.967566,5.7042641 127.398411,5.86960509 126.896029,6.20028706 C126.393647,6.53096904 125.919881,6.97611786 125.474732,7.53573351 L125.474732,13.2590754 C125.474732,13.5007276 125.388882,13.7042242 125.217182,13.8695652 C125.045482,14.0349062 124.838805,14.1175767 124.597153,14.1175767 Z" id="Path"></path>
                <path d="M139.897554,18.6008612 C139.159879,18.6008612 138.415844,18.5054722 137.665451,18.3146941 C136.915057,18.123916 136.298208,17.8886231 135.814903,17.6088153 C135.58597,17.4689113 135.471503,17.2463369 135.471503,16.941092 C135.471503,16.7375954 135.544634,16.5563563 135.690898,16.3973746 C135.837161,16.2383928 136.0184,16.158902 136.234615,16.158902 C136.336363,16.158902 136.45083,16.1843391 136.578016,16.2352132 C137.544625,16.7185176 138.593904,16.9601698 139.725854,16.9601698 C141.67179,16.9601698 142.644758,15.923609 142.644758,13.8504874 L142.644758,12.5722744 C141.741742,13.5388832 140.654307,14.0221877 139.382453,14.0221877 C138.632059,14.0221877 137.903923,13.8345892 137.198044,13.4593924 C136.492166,13.0841955 135.910292,12.5245799 135.452425,11.7805454 C134.994558,11.036511 134.765624,10.1303152 134.765624,9.06195802 C134.765624,7.99360086 134.994558,7.08740506 135.452425,6.34337061 C135.910292,5.59933616 136.492166,5.03972051 137.198044,4.66452365 C137.903923,4.28932679 138.632059,4.10172837 139.382453,4.10172837 C140.654307,4.10172837 141.741742,4.58503279 142.644758,5.55164165 L142.644758,5.07469649 C142.644758,4.83304428 142.727429,4.62636804 142.89277,4.45466778 C143.058111,4.28296753 143.261607,4.1971174 143.503259,4.1971174 C143.744912,4.1971174 143.951588,4.28296753 144.123288,4.45466778 C144.294988,4.62636804 144.380838,4.83304428 144.380838,5.07469649 L144.380838,13.6024759 C144.380838,15.2050117 143.992923,16.4387098 143.217092,17.3035704 C142.441261,18.1684309 141.334749,18.6008612 139.897554,18.6008612 Z M139.744932,12.4387297 C140.342703,12.4387297 140.870522,12.3115444 141.328389,12.0571736 C141.786257,11.8028029 142.225046,11.4594023 142.644758,11.0269721 L142.644758,7.09694396 C142.225046,6.66451369 141.786257,6.32111317 141.328389,6.06674242 C140.870522,5.81237167 140.342703,5.68518629 139.744932,5.68518629 C138.791041,5.68518629 138.012031,5.97453302 137.4079,6.55322648 C136.80377,7.13191994 136.501704,7.96816379 136.501704,9.06195802 C136.501704,10.1557522 136.80377,10.9919961 137.4079,11.5706896 C138.012031,12.149383 138.791041,12.4387297 139.744932,12.4387297 Z" id="Shape"></path>
                <path d="M4.61682914,34.6064829 C3.82827981,34.6064829 3.08106573,34.4061659 2.37518689,34.005532 C1.66930806,33.604898 1.09697387,33.0198453 0.658184319,32.2503738 C0.219394773,31.4809023 0,30.5810657 0,29.5508642 C0,28.5206626 0.219394773,27.6208261 0.658184319,26.8513546 C1.09697387,26.0818831 1.66930806,25.4968303 2.37518689,25.0961964 C3.08106573,24.6955625 3.82827981,24.4952455 4.61682914,24.4952455 C5.86324582,24.4952455 6.95068078,24.9785499 7.87913402,25.9451588 L7.87913402,21.2710962 C7.87913402,21.0167255 7.96498415,20.8068696 8.13668441,20.6415286 C8.30838467,20.4761876 8.5150609,20.3935171 8.75671312,20.3935171 C8.99836533,20.3935171 9.20186193,20.4793673 9.36720292,20.6510675 C9.53254391,20.8227678 9.6152144,21.029444 9.6152144,21.2710962 L9.6152144,33.6525925 C9.6152144,33.8942448 9.53254391,34.0977414 9.36720292,34.2630824 C9.20186193,34.4284233 8.99836533,34.5110938 8.75671312,34.5110938 C8.5150609,34.5110938 8.30838467,34.4284233 8.13668441,34.2630824 C7.96498415,34.0977414 7.87913402,33.8942448 7.87913402,33.6525925 L7.87913402,33.1565696 C6.95068078,34.1231784 5.86324582,34.6064829 4.61682914,34.6064829 Z M4.86484062,32.9848693 C5.44989335,32.9848693 5.9999701,32.8545043 6.51507087,32.5937743 C7.03017164,32.3330443 7.48485936,31.9864641 7.87913402,31.5540338 L7.87913402,27.5476945 C7.48485936,27.1152642 7.03017164,26.7686841 6.51507087,26.5079541 C5.9999701,26.247224 5.44989335,26.116859 4.86484062,26.116859 C3.92366884,26.116859 3.16691585,26.4157447 2.59458166,27.0135159 C2.02224747,27.6112872 1.73608038,28.45707 1.73608038,29.5508642 C1.73608038,30.6446584 2.02224747,31.4904412 2.59458166,32.0882124 C3.16691585,32.6859837 3.92366884,32.9848693 4.86484062,32.9848693 Z" id="Shape"></path>
                <path d="M16.9792477,34.6064829 C15.4275861,34.6064829 14.2161454,34.1645137 13.3449255,33.2805753 C12.4737057,32.396637 12.0380958,31.1533999 12.0380958,29.5508642 C12.0380958,28.647848 12.2034368,27.8147838 12.5341188,27.0516716 C12.8648007,26.2885593 13.3735423,25.6717102 14.0603433,25.2011243 C14.7471443,24.7305384 15.5929271,24.4952455 16.5976915,24.4952455 C17.5388633,24.4952455 18.3528497,24.7146403 19.0396507,25.1534298 C19.7264518,25.5922194 20.2479118,26.1772721 20.6040309,26.908588 C20.9601499,27.6399039 21.1382094,28.4379921 21.1382094,29.3028527 C21.1382094,29.5445049 21.0587186,29.7480015 20.8997369,29.9133425 C20.7407551,30.0786835 20.5277196,30.161354 20.2606303,30.161354 L13.793254,30.161354 C13.8950023,31.0516516 14.2256843,31.7448119 14.7852999,32.2408349 C15.3449156,32.7368578 16.1271056,32.9848693 17.1318701,32.9848693 C17.6660487,32.9848693 18.1334549,32.9339952 18.5340889,32.8322469 C18.9347228,32.7304986 19.3258178,32.5842354 19.707374,32.3934573 C19.8091223,32.3425832 19.9235891,32.3171461 20.0507745,32.3171461 C20.2542711,32.3171461 20.4323306,32.3870981 20.5849531,32.527002 C20.7375755,32.6669059 20.8138867,32.8449654 20.8138867,33.0611806 C20.8138867,33.3409884 20.6485457,33.5762813 20.3178638,33.7670594 C19.8218408,34.0468672 19.3321771,34.2567231 18.8488727,34.396627 C18.3655682,34.5365309 17.7423599,34.6064829 16.9792477,34.6064829 Z M19.4212069,28.7495963 C19.3830513,28.126388 19.2208899,27.6049279 18.9347228,27.1852162 C18.6485557,26.7655045 18.2956163,26.4570799 17.8759046,26.2599426 C17.4561928,26.0628053 17.0301218,25.9642366 16.5976915,25.9642366 C16.1652612,25.9642366 15.7391902,26.0628053 15.3194785,26.2599426 C14.8997668,26.4570799 14.550007,26.7655045 14.2701992,27.1852162 C13.9903913,27.6049279 13.8314096,28.126388 13.793254,28.7495963 L19.4212069,28.7495963 Z" id="Shape"></path>
                <path d="M26.5753842,34.6064829 C25.3035305,34.6064829 24.1461436,34.3203158 23.1032235,33.7479816 C22.8870084,33.5953591 22.7789008,33.3855033 22.7789008,33.118414 C22.7789008,32.9149174 22.8488527,32.7368578 22.9887567,32.5842354 C23.1286606,32.4316129 23.3067201,32.3553017 23.5229352,32.3553017 C23.6374021,32.3553017 23.7518689,32.3807388 23.8663357,32.4316129 C24.2733289,32.6096725 24.6803221,32.7495764 25.0873154,32.8513247 C25.4943086,32.953073 25.9521759,33.0039471 26.4609174,33.0039471 C27.8726751,33.0039471 28.5785539,32.552439 28.5785539,31.6494229 C28.5785539,31.3568965 28.4163926,31.1343221 28.0920699,30.9816997 C27.7677471,30.8290772 27.2367482,30.657377 26.499073,30.4665989 C25.7486793,30.2885394 25.1286506,30.1041206 24.6389869,29.9133425 C24.1493232,29.7225644 23.7296115,29.4332177 23.3798517,29.0453023 C23.0300919,28.6573869 22.855212,28.1454658 22.855212,27.5095389 C22.855212,26.6192413 23.1763551,25.8942846 23.8186412,25.334669 C24.4609274,24.7750533 25.3798417,24.4952455 26.5753842,24.4952455 C27.5547116,24.4952455 28.4768056,24.6542272 29.3416662,24.9721907 C29.5197257,25.0230648 29.65645,25.1184538 29.751839,25.2583578 C29.847228,25.3982617 29.8949226,25.5445248 29.8949226,25.6971473 C29.8949226,25.9006439 29.821791,26.0787034 29.6755278,26.2313259 C29.5292646,26.3839483 29.3480254,26.4602596 29.1318103,26.4602596 C29.0682176,26.4602596 28.9855471,26.447541 28.8837988,26.4221039 C28.1461236,26.1931703 27.421167,26.0787034 26.7089289,26.0787034 C26.0221279,26.0787034 25.4847697,26.2027092 25.0968543,26.4507207 C24.7089389,26.6987321 24.5149812,27.0198752 24.5149812,27.4141499 C24.5149812,27.795706 24.6930407,28.0755138 25.0491597,28.2535734 C25.4052788,28.4316329 25.9585352,28.6033331 26.7089289,28.7686741 C27.4593226,28.9594522 28.0698124,29.1470506 28.5403983,29.3314694 C29.0109842,29.5158882 29.4147978,29.8052349 29.751839,30.1995096 C30.0888803,30.5937843 30.2574009,31.1216036 30.2574009,31.7829675 C30.2574009,32.5969539 29.9362578,33.2710364 29.2939717,33.805215 C28.6516855,34.3393936 27.7454897,34.6064829 26.5753842,34.6064829 Z" id="Path"></path>
                <polygon id="Path" points="40.3304826 33.5762813 40.4640273 33.7670594 42.1810298 33.7670594 42.0284074 34.4157048 36.2287543 34.4157048 36.3813767 33.7670594 38.0983793 33.7670594 38.3463908 33.5762813 41.4942288 20.9467735 41.3606842 20.7559955 39.6436816 20.7559955 39.796304 20.10735 45.5959572 20.10735 45.4433347 20.7559955 43.7263322 20.7559955 43.4783207 20.9467735"></polygon>
                <path d="M51.5100771,34.4157048 L50.0601639,34.4157048 L52.1396448,28.1200287 C52.2286745,27.8529394 52.3177043,27.5731316 52.406734,27.2806052 C52.4957638,26.9880789 52.5402787,26.7464266 52.5402787,26.5556486 C52.5402787,26.3903076 52.5021231,26.247224 52.4258119,26.1263979 C52.3495006,26.0055718 52.215956,25.9451588 52.0251779,25.9451588 C51.6436218,25.9451588 51.2175508,26.1995295 50.7469649,26.708271 C50.276379,27.2170125 49.8057931,27.8720172 49.3352072,28.6732851 C48.8646213,29.474553 48.4162929,30.3839284 47.9902219,31.4014114 C47.5641509,32.4188944 47.2048522,33.4236589 46.9123258,34.4157048 L45.4624125,34.4157048 L47.8280605,26.1740925 L47.6182047,25.9833144 C47.5418934,26.0469071 47.3447561,26.256763 47.0267927,26.612882 C46.7088292,26.9690011 46.3336324,27.4586648 45.9012021,28.0818731 L45.1380898,28.0818731 C45.5832386,27.3950721 46.076082,26.743247 46.6166198,26.1263979 C47.1571577,25.5095489 47.5736898,25.0930168 47.8662161,24.8768016 L49.0108845,24.8768016 C49.2143811,25.003987 49.328848,25.2456392 49.354285,25.6017583 C49.3797221,25.9578773 49.2143811,26.6001635 48.8582621,27.5286167 L47.9425274,29.9324203 L48.2096166,29.9324203 C48.4003947,29.4872715 48.6452266,28.9626318 48.9441122,28.3585013 C49.2429978,27.7543708 49.589578,27.1820366 49.9838526,26.6414987 C50.3781273,26.1009609 50.8200965,25.6399139 51.3097602,25.2583578 C51.7994239,24.8768016 52.3177043,24.6860236 52.8646014,24.6860236 C53.3351873,24.6860236 53.6531507,24.8163886 53.8184917,25.0771186 C53.9838327,25.3378486 54.0665032,25.6399139 54.0665032,25.9833144 C54.0665032,26.3394334 53.9488567,26.8195582 53.7135638,27.4236888 C53.4782708,28.0278193 53.1444092,28.8640632 52.7119789,29.9324203 L52.9790682,29.9324203 C53.1952834,29.474553 53.4655523,28.9403744 53.789875,28.3298846 C54.1141977,27.7193948 54.4862149,27.1470606 54.9059267,26.612882 C55.3256384,26.0787034 55.789865,25.6240157 56.2986065,25.2488189 C56.807348,24.873622 57.3542452,24.6860236 57.9392979,24.6860236 C58.4098838,24.6860236 58.7437454,24.8163886 58.9408827,25.0771186 C59.1380201,25.3378486 59.2365887,25.6399139 59.2365887,25.9833144 C59.2365887,26.2631222 59.1666368,26.6160616 59.0267329,27.0421326 C58.8868289,27.4682037 58.7214879,27.9546877 58.5307099,28.5015848 L56.9090963,33.118414 L57.1189522,33.309192 C57.2842932,33.2201623 57.5609214,32.9721508 57.9488368,32.5651576 C58.3367522,32.1581644 58.7087694,31.770249 59.0648885,31.4014114 L59.8280007,31.4014114 C59.6245041,31.6303451 59.3923908,31.8910751 59.1316608,32.1836015 C58.8709308,32.4761278 58.6038415,32.7622949 58.3303929,33.0421027 C58.0569444,33.3219106 57.7866754,33.5858202 57.5195861,33.8338317 C57.2524969,34.0818432 57.0172039,34.2758009 56.8137073,34.4157048 L55.6690389,34.4157048 C55.5418536,34.3648307 55.4369256,34.2599027 55.3542551,34.100921 C55.2715846,33.9419393 55.2302494,33.7797779 55.2302494,33.6144369 C55.2302494,33.4109403 55.2652254,33.178827 55.3351773,32.918097 C55.4051293,32.657367 55.5036979,32.3489424 55.6308833,31.9928234 L56.9663298,28.1200287 C57.0553595,27.8529394 57.1443893,27.5731316 57.2334191,27.2806052 C57.3224488,26.9880789 57.3669637,26.7591452 57.3669637,26.5938042 C57.3669637,26.4030261 57.3288081,26.247224 57.2524969,26.1263979 C57.1761856,26.0055718 57.042641,25.9451588 56.8518629,25.9451588 C56.4703068,25.9451588 56.0442358,26.1995295 55.5736499,26.708271 C55.103064,27.2170125 54.6261189,27.8720172 54.1428144,28.6732851 C53.65951,29.474553 53.1889241,30.3839284 52.7310568,31.4014114 C52.2731894,32.4188944 51.8661962,33.4236589 51.5100771,34.4157048 Z" id="Path"></path>
                <path d="M67.6880569,34.4157048 L66.2381437,34.4157048 L68.3176245,28.1200287 C68.4066543,27.8529394 68.4956841,27.5731316 68.5847138,27.2806052 C68.6737436,26.9880789 68.7182585,26.7464266 68.7182585,26.5556486 C68.7182585,26.3903076 68.6801029,26.247224 68.6037916,26.1263979 C68.5274804,26.0055718 68.3939358,25.9451588 68.2031577,25.9451588 C67.8216016,25.9451588 67.3955306,26.1995295 66.9249447,26.708271 C66.4543588,27.2170125 65.9837729,27.8720172 65.513187,28.6732851 C65.0426011,29.474553 64.5942727,30.3839284 64.1682017,31.4014114 C63.7421307,32.4188944 63.382832,33.4236589 63.0903056,34.4157048 L61.6403923,34.4157048 L64.0060403,26.1740925 L63.7961844,25.9833144 C63.7198732,26.0469071 63.5227359,26.256763 63.2047724,26.612882 C62.886809,26.9690011 62.5116121,27.4586648 62.0791819,28.0818731 L61.3160696,28.0818731 C61.7612184,27.3950721 62.2540618,26.743247 62.7945996,26.1263979 C63.3351375,25.5095489 63.7516696,25.0930168 64.0441959,24.8768016 L65.1888643,24.8768016 C65.3923609,25.003987 65.5068277,25.2456392 65.5322648,25.6017583 C65.5577019,25.9578773 65.3923609,26.6001635 65.0362419,27.5286167 L64.1205071,29.9324203 L64.3875964,29.9324203 C64.5783745,29.4872715 64.8232063,28.9626318 65.122092,28.3585013 C65.4209776,27.7543708 65.7675578,27.1820366 66.1618324,26.6414987 C66.5561071,26.1009609 66.9980763,25.6399139 67.48774,25.2583578 C67.9774037,24.8768016 68.4956841,24.6860236 69.0425812,24.6860236 C69.5131671,24.6860236 69.8311305,24.8163886 69.9964715,25.0771186 C70.1618125,25.3378486 70.244483,25.6399139 70.244483,25.9833144 C70.244483,26.3394334 70.1268365,26.8195582 69.8915436,27.4236888 C69.6562506,28.0278193 69.322389,28.8640632 68.8899587,29.9324203 L69.157048,29.9324203 C69.3732632,29.474553 69.6435321,28.9403744 69.9678548,28.3298846 C70.2921775,27.7193948 70.6641947,27.1470606 71.0839065,26.612882 C71.5036182,26.0787034 71.9678448,25.6240157 72.4765863,25.2488189 C72.9853278,24.873622 73.5322249,24.6860236 74.1172777,24.6860236 C74.5878636,24.6860236 74.9217252,24.8163886 75.1188625,25.0771186 C75.3159998,25.3378486 75.4145685,25.6399139 75.4145685,25.9833144 C75.4145685,26.2631222 75.3446166,26.6160616 75.2047126,27.0421326 C75.0648087,27.4682037 74.8994677,27.9546877 74.7086897,28.5015848 L73.0870761,33.118414 L73.296932,33.309192 C73.462273,33.2201623 73.7389012,32.9721508 74.1268166,32.5651576 C74.514732,32.1581644 74.8867492,31.770249 75.2428682,31.4014114 L76.0059805,31.4014114 C75.8024839,31.6303451 75.5703706,31.8910751 75.3096406,32.1836015 C75.0489106,32.4761278 74.7818213,32.7622949 74.5083727,33.0421027 C74.2349241,33.3219106 73.9646552,33.5858202 73.6975659,33.8338317 C73.4304766,34.0818432 73.1951837,34.2758009 72.9916871,34.4157048 L71.8470187,34.4157048 C71.7198333,34.3648307 71.6149054,34.2599027 71.5322349,34.100921 C71.4495644,33.9419393 71.4082292,33.7797779 71.4082292,33.6144369 C71.4082292,33.4109403 71.4432052,33.178827 71.5131571,32.918097 C71.5831091,32.657367 71.6816777,32.3489424 71.8088631,31.9928234 L73.1443096,28.1200287 C73.2333393,27.8529394 73.3223691,27.5731316 73.4113988,27.2806052 C73.5004286,26.9880789 73.5449435,26.7591452 73.5449435,26.5938042 C73.5449435,26.4030261 73.5067879,26.247224 73.4304766,26.1263979 C73.3541654,26.0055718 73.2206208,25.9451588 73.0298427,25.9451588 C72.6482866,25.9451588 72.2222156,26.1995295 71.7516297,26.708271 C71.2810438,27.2170125 70.8040986,27.8720172 70.3207942,28.6732851 C69.8374898,29.474553 69.3669039,30.3839284 68.9090365,31.4014114 C68.4511692,32.4188944 68.044176,33.4236589 67.6880569,34.4157048 Z" id="Path"></path>
                <path d="M83.5798696,32.2026793 L84.4383709,30.0278093 L84.1712816,30.0278093 C83.3700138,31.4522855 82.5433088,32.5715169 81.6911668,33.3855033 C80.8390248,34.1994897 79.9614457,34.6064829 79.0584295,34.6064829 C78.5115324,34.6064829 78.0568447,34.466579 77.6943664,34.1867711 C77.331888,33.9069633 77.1506489,33.4236589 77.1506489,32.7368578 C77.1506489,31.9864641 77.3541455,31.143861 77.7611387,30.2090485 C78.1681319,29.274236 78.6959512,28.3998365 79.3445966,27.5858501 C79.993242,26.7718637 80.7245579,26.0850627 81.5385443,25.525447 C82.3525307,24.9658314 83.1665172,24.6860236 83.9805036,24.6860236 C84.4002153,24.6860236 84.7118195,24.743257 84.9153161,24.8577238 C85.1188127,24.9721907 85.245998,25.0548612 85.2968722,25.1057353 L85.4876503,25.1057353 L85.6211949,24.6860236 L87.2618863,24.6860236 L84.819927,33.118414 L85.0297829,33.309192 C85.1442497,33.1947252 85.3604649,32.953073 85.6784283,32.5842354 C85.9963918,32.2153978 86.3207145,31.8211231 86.6513964,31.4014114 L87.4145087,31.4014114 C87.2110121,31.6557822 86.9884377,31.9292307 86.7467855,32.2217571 C86.5051333,32.5142834 86.2666607,32.8004505 86.0313677,33.0802584 C85.7960748,33.3600662 85.5671411,33.6176166 85.3445667,33.8529095 C85.1219923,34.0882025 84.9153161,34.2758009 84.724538,34.4157048 L83.5798696,34.4157048 C83.2746247,34.2503638 83.150619,33.9610171 83.2078524,33.5476646 C83.2650858,33.1343121 83.3890916,32.6859837 83.5798696,32.2026793 Z M79.0584295,32.4697686 C79.0584295,32.8258876 79.1379204,33.0738991 79.2969021,33.213803 C79.4558838,33.3537069 79.6562008,33.4236589 79.897853,33.4236589 C80.3430018,33.4236589 80.8676415,33.1565696 81.471772,32.622391 C82.0759026,32.0882124 82.6450571,31.4491059 83.1792357,30.7050715 C83.7134143,29.961037 84.168102,29.1883859 84.5432988,28.387118 C84.9184957,27.5858501 85.1060941,26.9244862 85.1060941,26.4030261 C85.1060941,26.0087515 84.9884477,25.725764 84.7531547,25.5540638 C84.5178618,25.3823635 84.2475928,25.2965134 83.9423479,25.2965134 C83.4081694,25.2965134 82.8517333,25.5699619 82.2730399,26.116859 C81.6943464,26.6637562 81.1697068,27.3155812 80.6991209,28.0723342 C80.228535,28.8290872 79.8374399,29.6144569 79.5258358,30.4284433 C79.2142316,31.2424297 79.0584295,31.9228714 79.0584295,32.4697686 Z" id="Shape"></path>
                <path d="M93.7674182,22.7782429 L93.1569284,24.8768016 L95.1028647,24.8768016 L94.8930088,25.6399139 L92.9279947,25.6399139 L90.7531248,33.118414 L90.9629807,33.309192 C91.0392919,33.2583179 91.160118,33.1533899 91.325459,32.9944082 C91.4908,32.8354265 91.6752188,32.6541873 91.8787154,32.4506907 C92.082212,32.2471941 92.2920679,32.0341586 92.508283,31.8115842 C92.7244981,31.5890098 92.9152762,31.3886929 93.0806172,31.2106333 L93.8437294,31.2106333 C93.6402328,31.4522855 93.3985806,31.7257341 93.1187728,32.030979 C92.838965,32.3362239 92.5527979,32.6382892 92.2602715,32.9371748 C91.9677452,33.2360604 91.6783984,33.5190479 91.3922313,33.7861372 C91.1060642,34.0532265 90.8612324,34.2630824 90.6577358,34.4157048 L89.5130674,34.4157048 C89.2078225,34.2503638 89.0583797,33.970556 89.064739,33.5762813 C89.0710982,33.1820067 89.1569483,32.7114208 89.3222893,32.1645237 L91.3826924,25.7162251 L89.7801567,25.7162251 L89.5703008,25.525447 L93.5766402,22.7782429 L93.7674182,22.7782429 Z" id="Path"></path>
                <path d="M101.646552,24.6860236 C102.384227,24.6860236 102.924765,24.8609035 103.268166,25.2106632 C103.611566,25.560423 103.783267,25.9705959 103.783267,26.4411817 C103.783267,26.8608935 103.678339,27.2360903 103.468483,27.5667723 C103.258627,27.8974543 102.912047,28.1995196 102.428742,28.4729681 C101.945438,28.7464167 101.303152,29.0007874 100.501884,29.2360804 C99.700616,29.4713733 98.7149293,29.6971274 97.5448239,29.9133425 C97.4812312,30.2185874 97.430357,30.5270119 97.3922014,30.8386161 C97.3540458,31.1502203 97.334968,31.4650041 97.334968,31.7829675 C97.334968,32.4188944 97.4621534,32.8958396 97.7165241,33.213803 C97.9708949,33.5317664 98.352451,33.6907482 98.8611925,33.6907482 C99.2173116,33.6907482 99.5638917,33.6080777 99.900933,33.4427367 C100.237974,33.2773957 100.549578,33.0738991 100.835745,32.8322469 C101.121913,32.5905947 101.385822,32.3394035 101.627474,32.0786735 C101.869127,31.8179435 102.066264,31.5921895 102.218886,31.4014114 L102.981999,31.4014114 C102.791221,31.6430636 102.549568,31.9483085 102.257042,32.3171461 C101.964516,32.6859837 101.621115,33.0389231 101.22684,33.3759644 C100.832566,33.7130056 100.381058,34.0023523 99.8723162,34.2440045 C99.3635747,34.4856568 98.8039591,34.6064829 98.1934693,34.6064829 C97.3667643,34.6064829 96.6990411,34.3998066 96.1902996,33.9864542 C95.6815581,33.5731017 95.4271874,32.8513247 95.4271874,31.8211231 C95.4271874,31.0580109 95.6020673,30.2535634 95.951827,29.4077806 C96.3015868,28.5619979 96.7626338,27.7925264 97.334968,27.0993661 C97.9073022,26.4062058 98.5686661,25.8306919 99.3190599,25.3728246 C100.069454,24.9149572 100.845284,24.6860236 101.646552,24.6860236 Z M101.22684,25.2583578 C100.896159,25.2583578 100.559117,25.3632857 100.215717,25.5731416 C99.8723162,25.7829974 99.5479935,26.0628053 99.2427486,26.412565 C98.9375037,26.7623248 98.6513366,27.1820366 98.3842474,27.6717003 C98.1171581,28.161364 97.9009429,28.6796444 97.7356019,29.2265415 L97.9073022,29.3791639 C98.848474,29.1120746 99.6020473,28.848165 100.168022,28.587435 C100.733997,28.3267049 101.166427,28.0691546 101.465313,27.8147838 C101.764199,27.5604131 101.958156,27.3028627 102.047186,27.0421326 C102.136216,26.7814026 102.180731,26.517493 102.180731,26.2504037 C102.180731,25.9451588 102.10124,25.7035066 101.942258,25.525447 C101.783277,25.3473875 101.544804,25.2583578 101.22684,25.2583578 Z" id="Shape"></path>
                <path d="M112.082112,24.7623348 L113.150469,24.6860236 L113.303092,24.8768016 L112.807069,26.5747264 L111.662401,26.5747264 C111.179096,26.5747264 110.698971,26.7941212 110.222026,27.2329107 C109.745081,27.6717003 109.287214,28.2503937 108.848424,28.9689911 C108.409635,29.6875885 107.986743,30.5206527 107.57975,31.4681837 C107.172757,32.4157148 106.803919,33.3982218 106.473237,34.4157048 L105.023324,34.4157048 L107.331739,26.1740925 L107.121883,25.9833144 C107.045571,26.0469071 106.848434,26.256763 106.530471,26.612882 C106.212507,26.9690011 105.83731,27.4586648 105.40488,28.0818731 L104.641768,28.0818731 C105.086917,27.3950721 105.57976,26.743247 106.120298,26.1263979 C106.660836,25.5095489 107.077368,25.0930168 107.369894,24.8768016 L108.514563,24.8768016 C108.718059,25.003987 108.813448,25.2456392 108.80073,25.6017583 C108.788011,25.9578773 108.62267,26.6065227 108.304707,27.5476945 L107.503439,29.9324203 L107.846839,29.9324203 C108.470048,28.4189143 109.150489,27.1915755 109.888165,26.2504037 C110.62584,25.3092319 111.357156,24.8132089 112.082112,24.7623348 Z" id="Path"></path>
                <path d="M116.756175,22.2059087 L116.756175,20.10735 L118.854734,20.10735 L118.854734,22.2059087 L116.756175,22.2059087 Z M114.71485,33.2710364 L114.924705,33.4618145 C115.013735,33.4109403 115.14728,33.309192 115.325339,33.1565696 C115.503399,33.0039471 115.697357,32.8290672 115.907212,32.6319299 C116.117068,32.4347926 116.330104,32.2281163 116.546319,32.0119012 C116.762534,31.7956861 116.953312,31.5921895 117.118653,31.4014114 L117.881765,31.4014114 C117.678269,31.6303451 117.442976,31.8878955 117.175887,32.1740626 C116.908797,32.4602297 116.632169,32.7432171 116.346002,33.0230249 C116.059835,33.3028328 115.776847,33.5667424 115.49704,33.8147539 C115.217232,34.0627654 114.96922,34.2630824 114.753005,34.4157048 L113.608337,34.4157048 C113.353966,34.2503638 113.214062,33.9737356 113.188625,33.5858202 C113.163188,33.1979048 113.252218,32.7368578 113.455714,32.2026793 L115.706896,26.1740925 L115.49704,25.9833144 C115.420728,26.0469071 115.23631,26.2345055 114.943783,26.5461097 C114.651257,26.8577139 114.19339,27.3823535 113.570181,28.1200287 L112.807069,28.1200287 C113.430277,27.2806052 114.005791,26.5874449 114.53361,26.0405478 C115.06143,25.4936507 115.503399,25.1057353 115.859518,24.8768016 L117.004186,24.8768016 C117.118653,24.9276758 117.22994,25.0167055 117.338048,25.1438909 C117.446156,25.2710763 117.500209,25.4364173 117.500209,25.6399139 C117.500209,25.8052549 117.477952,25.986494 117.433437,26.1836314 C117.388922,26.3807687 117.309431,26.6192413 117.194964,26.8990491 L114.71485,33.2710364 Z" id="Shape"></path>
                <path d="M125.360266,24.6860236 C126.097941,24.6860236 126.638479,24.8609035 126.981879,25.2106632 C127.32528,25.560423 127.49698,25.9705959 127.49698,26.4411817 C127.49698,26.8608935 127.392052,27.2360903 127.182196,27.5667723 C126.97234,27.8974543 126.62576,28.1995196 126.142456,28.4729681 C125.659151,28.7464167 125.016865,29.0007874 124.215597,29.2360804 C123.414329,29.4713733 122.428643,29.6971274 121.258537,29.9133425 C121.194944,30.2185874 121.14407,30.5270119 121.105915,30.8386161 C121.067759,31.1502203 121.048681,31.4650041 121.048681,31.7829675 C121.048681,32.4188944 121.175867,32.8958396 121.430237,33.213803 C121.684608,33.5317664 122.066164,33.6907482 122.574906,33.6907482 C122.931025,33.6907482 123.277605,33.6080777 123.614646,33.4427367 C123.951687,33.2773957 124.263292,33.0738991 124.549459,32.8322469 C124.835626,32.5905947 125.099536,32.3394035 125.341188,32.0786735 C125.58284,31.8179435 125.779977,31.5921895 125.9326,31.4014114 L126.695712,31.4014114 C126.504934,31.6430636 126.263282,31.9483085 125.970755,32.3171461 C125.678229,32.6859837 125.334828,33.0389231 124.940554,33.3759644 C124.546279,33.7130056 124.094771,34.0023523 123.58603,34.2440045 C123.077288,34.4856568 122.517672,34.6064829 121.907183,34.6064829 C121.080478,34.6064829 120.412754,34.3998066 119.904013,33.9864542 C119.395271,33.5731017 119.140901,32.8513247 119.140901,31.8211231 C119.140901,31.0580109 119.315781,30.2535634 119.66554,29.4077806 C120.0153,28.5619979 120.476347,27.7925264 121.048681,27.0993661 C121.621015,26.4062058 122.282379,25.8306919 123.032773,25.3728246 C123.783167,24.9149572 124.558998,24.6860236 125.360266,24.6860236 Z M124.940554,25.2583578 C124.609872,25.2583578 124.272831,25.3632857 123.92943,25.5731416 C123.58603,25.7829974 123.261707,26.0628053 122.956462,26.412565 C122.651217,26.7623248 122.36505,27.1820366 122.097961,27.6717003 C121.830871,28.161364 121.614656,28.6796444 121.449315,29.2265415 L121.621015,29.3791639 C122.562187,29.1120746 123.315761,28.848165 123.881736,28.587435 C124.44771,28.3267049 124.880141,28.0691546 125.179026,27.8147838 C125.477912,27.5604131 125.67187,27.3028627 125.760899,27.0421326 C125.849929,26.7814026 125.894444,26.517493 125.894444,26.2504037 C125.894444,25.9451588 125.814953,25.7035066 125.655972,25.525447 C125.49699,25.3473875 125.258517,25.2583578 124.940554,25.2583578 Z" id="Shape"></path>
                <path d="M130.167873,33.118414 L130.377729,33.309192 C130.54307,33.2201623 130.819698,32.9721508 131.207613,32.5651576 C131.595529,32.1581644 131.967546,31.770249 132.323665,31.4014114 L133.086777,31.4014114 C132.883281,31.6303451 132.651167,31.8910751 132.390437,32.1836015 C132.129707,32.4761278 131.862618,32.7622949 131.589169,33.0421027 C131.315721,33.3219106 131.045452,33.5858202 130.778363,33.8338317 C130.511273,34.0818432 130.27598,34.2758009 130.072484,34.4157048 L128.927815,34.4157048 C128.80063,34.3648307 128.695702,34.2599027 128.613032,34.100921 C128.530361,33.9419393 128.489026,33.7797779 128.489026,33.6144369 C128.489026,33.4109403 128.524002,33.178827 128.593954,32.918097 C128.663906,32.657367 128.749756,32.3425832 128.851504,31.9737456 L131.999342,20.9467735 L131.789486,20.7559955 L130.072484,20.7559955 L130.263262,20.10735 L134.059745,20.10735 L130.167873,33.118414 Z" id="Path"></path>
                <path d="M136.387238,33.118414 L136.597093,33.309192 C136.762434,33.2201623 137.039063,32.9721508 137.426978,32.5651576 C137.814893,32.1581644 138.186911,31.770249 138.54303,31.4014114 L139.306142,31.4014114 C139.102645,31.6303451 138.870532,31.8910751 138.609802,32.1836015 C138.349072,32.4761278 138.081983,32.7622949 137.808534,33.0421027 C137.535086,33.3219106 137.264817,33.5858202 136.997727,33.8338317 C136.730638,34.0818432 136.495345,34.2758009 136.291849,34.4157048 L135.14718,34.4157048 C135.019995,34.3648307 134.915067,34.2599027 134.832396,34.100921 C134.749726,33.9419393 134.708391,33.7797779 134.708391,33.6144369 C134.708391,33.4109403 134.743367,33.178827 134.813319,32.918097 C134.883271,32.657367 134.969121,32.3425832 135.070869,31.9737456 L138.218707,20.9467735 L138.008851,20.7559955 L136.291849,20.7559955 L136.482627,20.10735 L140.27911,20.10735 L136.387238,33.118414 Z" id="Path"></path>
                <path d="M146.860953,24.6860236 C147.598628,24.6860236 148.139166,24.8609035 148.482567,25.2106632 C148.825967,25.560423 148.997668,25.9705959 148.997668,26.4411817 C148.997668,26.8608935 148.89274,27.2360903 148.682884,27.5667723 C148.473028,27.8974543 148.126448,28.1995196 147.643143,28.4729681 C147.159839,28.7464167 146.517553,29.0007874 145.716285,29.2360804 C144.915017,29.4713733 143.92933,29.6971274 142.759225,29.9133425 C142.695632,30.2185874 142.644758,30.5270119 142.606602,30.8386161 C142.568447,31.1502203 142.549369,31.4650041 142.549369,31.7829675 C142.549369,32.4188944 142.676554,32.8958396 142.930925,33.213803 C143.185296,33.5317664 143.566852,33.6907482 144.075594,33.6907482 C144.431713,33.6907482 144.778293,33.6080777 145.115334,33.4427367 C145.452375,33.2773957 145.763979,33.0738991 146.050147,32.8322469 C146.336314,32.5905947 146.600223,32.3394035 146.841875,32.0786735 C147.083528,31.8179435 147.280665,31.5921895 147.433287,31.4014114 L148.1964,31.4014114 C148.005622,31.6430636 147.763969,31.9483085 147.471443,32.3171461 C147.178917,32.6859837 146.835516,33.0389231 146.441242,33.3759644 C146.046967,33.7130056 145.595459,34.0023523 145.086717,34.2440045 C144.577976,34.4856568 144.01836,34.6064829 143.40787,34.6064829 C142.581165,34.6064829 141.913442,34.3998066 141.404701,33.9864542 C140.895959,33.5731017 140.641588,32.8513247 140.641588,31.8211231 C140.641588,31.0580109 140.816468,30.2535634 141.166228,29.4077806 C141.515988,28.5619979 141.977035,27.7925264 142.549369,27.0993661 C143.121703,26.4062058 143.783067,25.8306919 144.533461,25.3728246 C145.283855,24.9149572 146.059685,24.6860236 146.860953,24.6860236 Z M146.441242,25.2583578 C146.11056,25.2583578 145.773518,25.3632857 145.430118,25.5731416 C145.086717,25.7829974 144.762395,26.0628053 144.45715,26.412565 C144.151905,26.7623248 143.865738,27.1820366 143.598648,27.6717003 C143.331559,28.161364 143.115344,28.6796444 142.950003,29.2265415 L143.121703,29.3791639 C144.062875,29.1120746 144.816448,28.848165 145.382423,28.587435 C145.948398,28.3267049 146.380828,28.0691546 146.679714,27.8147838 C146.9786,27.5604131 147.172557,27.3028627 147.261587,27.0421326 C147.350617,26.7814026 147.395132,26.517493 147.395132,26.2504037 C147.395132,25.9451588 147.315641,25.7035066 147.156659,25.525447 C146.997678,25.3473875 146.759205,25.2583578 146.441242,25.2583578 Z" id="Shape"></path>
                <path d="M155.961067,34.4157048 C155.833882,34.3648307 155.728954,34.2599027 155.646283,34.100921 C155.563613,33.9419393 155.522277,33.7797779 155.522277,33.6144369 C155.522277,33.4109403 155.557253,33.178827 155.627205,32.918097 C155.697157,32.657367 155.795726,32.3489424 155.922911,31.9928234 L157.258358,28.1200287 C157.347388,27.8529394 157.436417,27.5731316 157.525447,27.2806052 C157.614477,26.9880789 157.658992,26.7591452 157.658992,26.5938042 C157.658992,26.4030261 157.620836,26.247224 157.544525,26.1263979 C157.468214,26.0055718 157.334669,25.9451588 157.143891,25.9451588 C156.787772,25.9451588 156.352162,26.1995295 155.837061,26.708271 C155.32196,27.2170125 154.80368,27.8720172 154.28222,28.6732851 C153.76076,29.474553 153.261557,30.3839284 152.784612,31.4014114 C152.307667,32.4188944 151.922931,33.4236589 151.630405,34.4157048 L150.180492,34.4157048 L152.54614,26.1740925 L152.336284,25.9833144 C152.259972,26.0469071 152.062835,26.256763 151.744872,26.612882 C151.426908,26.9690011 151.051711,27.4586648 150.619281,28.0818731 L149.856169,28.0818731 C150.301318,27.3950721 150.794161,26.743247 151.334699,26.1263979 C151.875237,25.5095489 152.291769,25.0930168 152.584295,24.8768016 L153.728964,24.8768016 C153.93246,25.003987 154.056466,25.2424596 154.100981,25.5922194 C154.145496,25.9419791 153.989694,26.5874449 153.633575,27.5286167 L152.736918,29.9324203 L153.004007,29.9324203 C153.194785,29.4872715 153.458695,28.9626318 153.795736,28.3585013 C154.132777,27.7543708 154.523872,27.1820366 154.969021,26.6414987 C155.41417,26.1009609 155.913372,25.6399139 156.466629,25.2583578 C157.019885,24.8768016 157.595399,24.6860236 158.19317,24.6860236 C158.625601,24.6860236 158.956283,24.8163886 159.185216,25.0771186 C159.41415,25.3378486 159.528617,25.6399139 159.528617,25.9833144 C159.528617,26.2631222 159.458665,26.6160616 159.318761,27.0421326 C159.178857,27.4682037 159.013516,27.9546877 158.822738,28.5015848 L157.201124,33.118414 L157.41098,33.309192 C157.576321,33.2201623 157.852949,32.9721508 158.240865,32.5651576 C158.62878,32.1581644 159.000797,31.770249 159.356916,31.4014114 L160.120029,31.4014114 C159.916532,31.6303451 159.684419,31.8910751 159.423689,32.1836015 C159.162959,32.4761278 158.895869,32.7622949 158.622421,33.0421027 C158.348972,33.3219106 158.078703,33.5858202 157.811614,33.8338317 C157.544525,34.0818432 157.309232,34.2758009 157.105735,34.4157048 L155.961067,34.4157048 Z" id="Path"></path>
                <path d="M1.41175767,43.0954488 C1.14466838,43.0954488 0.915734705,43.0000598 0.724956641,42.8092817 C0.534178578,42.6185037 0.438789546,42.38957 0.438789546,42.1224807 L0.438789546,42.0461695 C0.438789546,41.7790802 0.534178578,41.5501465 0.724956641,41.3593685 C0.915734705,41.1685904 1.14466838,41.0732014 1.41175767,41.0732014 L1.52622451,41.0732014 C1.7933138,41.0732014 2.02224747,41.1685904 2.21302554,41.3593685 C2.4038036,41.5501465 2.49919263,41.7790802 2.49919263,42.0461695 L2.49919263,42.1224807 C2.49919263,42.38957 2.4038036,42.6185037 2.21302554,42.8092817 C2.02224747,43.0000598 1.7933138,43.0954488 1.52622451,43.0954488 L1.41175767,43.0954488 Z M1.44991328,54.904611 C1.20826107,54.904611 1.00476447,54.8219405 0.839423479,54.6565995 C0.674082491,54.4912585 0.591411997,54.2877619 0.591411997,54.0461097 L0.591411997,45.8617308 C0.591411997,45.6200785 0.674082491,45.4134023 0.839423479,45.2417021 C1.00476447,45.0700018 1.20826107,44.9841517 1.44991328,44.9841517 C1.70428403,44.9841517 1.9141399,45.0668222 2.07948089,45.2321631 C2.24482188,45.3975041 2.32749237,45.60736 2.32749237,45.8617308 L2.32749237,54.0461097 C2.32749237,54.2877619 2.24164225,54.4912585 2.06994199,54.6565995 C1.89824173,54.8219405 1.6915655,54.904611 1.44991328,54.904611 Z" id="Shape"></path>
                <path d="M6.20028706,54.904611 C5.95863485,54.904611 5.75513825,54.8219405 5.58979726,54.6565995 C5.42445627,54.4912585 5.34178578,54.2877619 5.34178578,54.0461097 L5.34178578,45.8617308 C5.34178578,45.6200785 5.42445627,45.4134023 5.58979726,45.2417021 C5.75513825,45.0700018 5.95863485,44.9841517 6.20028706,44.9841517 C6.44193928,44.9841517 6.64861551,45.0700018 6.82031577,45.2417021 C6.99201603,45.4134023 7.07786616,45.6200785 7.07786616,45.8617308 L7.07786616,46.6439208 C7.43398521,46.1351793 7.86323585,45.7154676 8.36561809,45.3847856 C8.86800032,45.0541036 9.51982537,44.8887626 10.3210932,44.8887626 C11.0333313,44.8887626 11.6438211,45.0795407 12.1525626,45.4610968 C12.6613041,45.842653 13.0237825,46.3068796 13.2399976,46.8537767 C14.0285469,45.5437673 15.1986524,44.8887626 16.750314,44.8887626 C17.4625521,44.8887626 18.0571437,45.0668222 18.5340889,45.4229412 C19.011034,45.7790603 19.3639734,46.2369276 19.5929071,46.7965433 C19.8218408,47.3561589 19.9363076,47.9412117 19.9363076,48.5517015 L19.9363076,54.0461097 C19.9363076,54.2877619 19.8504575,54.4912585 19.6787573,54.6565995 C19.507057,54.8219405 19.3003808,54.904611 19.0587285,54.904611 C18.8170763,54.904611 18.6135797,54.8219405 18.4482387,54.6565995 C18.2828978,54.4912585 18.2002273,54.2877619 18.2002273,54.0461097 L18.2002273,48.895102 C18.2002273,48.068397 18.0539641,47.4610869 17.7614377,47.0731715 C17.4689113,46.6852561 16.9665291,46.4912984 16.254291,46.4912984 C15.6056456,46.4912984 15.0682874,46.659819 14.6422164,46.9968602 C14.2161454,47.3339015 13.8377689,47.7758707 13.5070869,48.3227678 L13.5070869,54.0461097 C13.5070869,54.2877619 13.4212368,54.4912585 13.2495365,54.6565995 C13.0778363,54.8219405 12.87116,54.904611 12.6295078,54.904611 C12.3878556,54.904611 12.184359,54.8219405 12.019018,54.6565995 C11.853677,54.4912585 11.7710065,54.2877619 11.7710065,54.0461097 L11.7710065,48.895102 C11.7710065,48.068397 11.6247433,47.4610869 11.332217,47.0731715 C11.0396906,46.6852561 10.5373084,46.4912984 9.82507027,46.4912984 C9.17642485,46.4912984 8.63906664,46.659819 8.21299563,46.9968602 C7.78692463,47.3339015 7.40854813,47.7758707 7.07786616,48.3227678 L7.07786616,54.0461097 C7.07786616,54.2877619 6.99201603,54.4912585 6.82031577,54.6565995 C6.64861551,54.8219405 6.44193928,54.904611 6.20028706,54.904611 Z" id="Path"></path>
                <path d="M29.0173435,54.904611 C28.7756912,54.904611 28.5721946,54.8219405 28.4068537,54.6565995 C28.2415127,54.4912585 28.1588422,54.2877619 28.1588422,54.0461097 L28.1588422,42.6566593 C28.1588422,42.3132588 28.2796683,42.0175528 28.5213205,41.7695413 C28.7629727,41.5215298 29.0554991,41.3975241 29.3988996,41.3975241 L30.0284672,41.3975241 C30.2828379,41.3975241 30.5149513,41.4738353 30.7248071,41.6264577 C30.934663,41.7790802 31.0904651,41.9698583 31.1922134,42.1987919 L35.5228754,52.9968303 L39.8535375,42.1987919 C39.9552858,41.9698583 40.1110879,41.7790802 40.3209437,41.6264577 C40.5307996,41.4738353 40.7629129,41.3975241 41.0172837,41.3975241 L41.6468513,41.3975241 C41.9902518,41.3975241 42.2827781,41.5215298 42.5244304,41.7695413 C42.7660826,42.0175528 42.8869087,42.3132588 42.8869087,42.6566593 L42.8869087,54.0461097 C42.8869087,54.2877619 42.8042382,54.4912585 42.6388972,54.6565995 C42.4735562,54.8219405 42.2700596,54.904611 42.0284074,54.904611 C41.7867552,54.904611 41.5800789,54.8219405 41.4083787,54.6565995 C41.2366784,54.4912585 41.1508283,54.2877619 41.1508283,54.0461097 L41.1508283,43.2099157 L36.743855,54.1033431 C36.6421067,54.3449953 36.4799454,54.538953 36.257371,54.6852162 C36.0347966,54.8314794 35.7899647,54.904611 35.5228754,54.904611 C35.2557861,54.904611 35.0109543,54.8314794 34.7883799,54.6852162 C34.5658055,54.538953 34.4036441,54.3449953 34.3018958,54.1033431 L29.8949226,43.2099157 L29.8949226,54.0461097 C29.8949226,54.2877619 29.8090724,54.4912585 29.6373722,54.6565995 C29.4656719,54.8219405 29.2589957,54.904611 29.0173435,54.904611 Z" id="Path"></path>
                <path d="M49.5641409,55 C48.8646213,55 48.2573112,54.834659 47.7422104,54.503977 C47.2271096,54.1732951 46.832835,53.721787 46.5593864,53.1494528 C46.2859378,52.5771186 46.1492136,51.947551 46.1492136,51.26075 L46.1492136,45.842653 C46.1492136,45.6010007 46.2350637,45.3975041 46.4067639,45.2321631 C46.5784642,45.0668222 46.7851404,44.9841517 47.0267927,44.9841517 C47.2684449,44.9841517 47.4719415,45.0668222 47.6372825,45.2321631 C47.8026234,45.3975041 47.8852939,45.6010007 47.8852939,45.842653 L47.8852939,51.0699719 C47.8852939,52.6216335 48.5848135,53.3974643 49.9838526,53.3974643 C50.6197795,53.3974643 51.1889341,53.2321233 51.6913163,52.9014413 C52.1936985,52.5707593 52.6674641,52.1256105 53.1126129,51.5659949 L53.1126129,45.842653 C53.1126129,45.6010007 53.198463,45.3975041 53.3701633,45.2321631 C53.5418635,45.0668222 53.7485398,44.9841517 53.990192,44.9841517 C54.2318442,44.9841517 54.4353408,45.0668222 54.6006818,45.2321631 C54.7660228,45.3975041 54.8486933,45.6010007 54.8486933,45.842653 L54.8486933,54.0270319 C54.8486933,54.2686841 54.7660228,54.4753603 54.6006818,54.6470606 C54.4353408,54.8187608 54.2318442,54.904611 53.990192,54.904611 C53.7485398,54.904611 53.5418635,54.8187608 53.3701633,54.6470606 C53.198463,54.4753603 53.1126129,54.2686841 53.1126129,54.0270319 L53.1126129,53.2448418 C52.6293085,53.7790204 52.1078484,54.2050914 51.5482328,54.5230548 C50.9886171,54.8410183 50.3272532,55 49.5641409,55 Z" id="Path"></path>
                <path d="M61.0108247,55 C59.738971,55 58.581584,54.7138329 57.538664,54.1414987 C57.3224488,53.9888763 57.2143412,53.7790204 57.2143412,53.5119311 C57.2143412,53.3084345 57.2842932,53.130375 57.4241971,52.9777525 C57.564101,52.8251301 57.7421606,52.7488189 57.9583757,52.7488189 C58.0728425,52.7488189 58.1873094,52.7742559 58.3017762,52.8251301 C58.7087694,53.0031896 59.1157626,53.1430935 59.5227558,53.2448418 C59.929749,53.3465901 60.3876164,53.3974643 60.8963579,53.3974643 C62.3081155,53.3974643 63.0139944,52.9459562 63.0139944,52.04294 C63.0139944,51.7504137 62.851833,51.5278392 62.5275103,51.3752168 C62.2031876,51.2225943 61.6721887,51.0508941 60.9345135,50.860116 C60.1841198,50.6820565 59.5640911,50.4976377 59.0744274,50.3068596 C58.5847637,50.1160816 58.1650519,49.8267348 57.8152921,49.4388194 C57.4655324,49.0509041 57.2906525,48.5389829 57.2906525,47.903056 C57.2906525,47.0127584 57.6117955,46.2878018 58.2540817,45.7281861 C58.8963678,45.1685705 59.8152822,44.8887626 61.0108247,44.8887626 C61.9901521,44.8887626 62.9122461,45.0477444 63.7771066,45.3657078 C63.9551662,45.4165819 64.0918904,45.511971 64.1872795,45.6518749 C64.2826685,45.7917788 64.330363,45.938042 64.330363,46.0906644 C64.330363,46.294161 64.2572314,46.4722206 64.1109682,46.624843 C63.9647051,46.7774655 63.7834659,46.8537767 63.5672508,46.8537767 C63.5036581,46.8537767 63.4209876,46.8410582 63.3192393,46.8156211 C62.5815641,46.5866874 61.8566075,46.4722206 61.1443694,46.4722206 C60.4575683,46.4722206 59.9202101,46.5962263 59.5322947,46.8442378 C59.1443793,47.0922493 58.9504216,47.4133923 58.9504216,47.807667 C58.9504216,48.1892231 59.1284812,48.469031 59.4846002,48.6470905 C59.8407193,48.82515 60.3939756,48.9968503 61.1443694,49.1621913 C61.8947631,49.3529693 62.5052529,49.5405677 62.9758388,49.7249865 C63.4464247,49.9094053 63.8502382,50.1987521 64.1872795,50.5930267 C64.5243207,50.9873014 64.6928413,51.5151207 64.6928413,52.1764847 C64.6928413,52.9904711 64.3716983,53.6645536 63.7294121,54.1987321 C63.087126,54.7329107 62.1809302,55 61.0108247,55 Z" id="Path"></path>
                <path d="M71.3700736,55 C69.818412,55 68.6069713,54.5580308 67.7357515,53.6740925 C66.8645316,52.7901541 66.4289217,51.5469171 66.4289217,49.9443813 C66.4289217,49.0413651 66.5942627,48.2083009 66.9249447,47.4451887 C67.2556267,46.6820764 67.7643682,46.0652274 68.4511692,45.5946415 C69.1379702,45.1240556 69.983753,44.8887626 70.9885174,44.8887626 C71.9296892,44.8887626 72.7436756,45.1081574 73.4304766,45.546947 C74.1172777,45.9857365 74.6387377,46.5707892 74.9948568,47.3021051 C75.3509758,48.033421 75.5290353,48.8315093 75.5290353,49.6963698 C75.5290353,49.938022 75.4495445,50.1415186 75.2905628,50.3068596 C75.131581,50.4722006 74.9185455,50.5548711 74.6514563,50.5548711 L68.1840799,50.5548711 C68.2858282,51.4451687 68.6165102,52.138329 69.1761258,52.634352 C69.7357415,53.130375 70.5179315,53.3783865 71.522696,53.3783865 C72.0568746,53.3783865 72.5242808,53.3275123 72.9249148,53.225764 C73.3255487,53.1240157 73.7166437,52.9777525 74.0981999,52.7869745 C74.1999482,52.7361003 74.314415,52.7106632 74.4416004,52.7106632 C74.645097,52.7106632 74.8231565,52.7806152 74.975779,52.9205191 C75.1284014,53.060423 75.2047126,53.2384825 75.2047126,53.4546977 C75.2047126,53.7345055 75.0393716,53.9697985 74.7086897,54.1605765 C74.2126667,54.4403843 73.723003,54.6502402 73.2396986,54.7901441 C72.7563942,54.930048 72.1331858,55 71.3700736,55 Z M73.8120328,49.1431135 C73.7738772,48.5199051 73.6117158,47.9984451 73.3255487,47.5787333 C73.0393816,47.1590216 72.6864422,46.8505971 72.2667305,46.6534597 C71.8470187,46.4563224 71.4209477,46.3577537 70.9885174,46.3577537 C70.5560872,46.3577537 70.1300161,46.4563224 69.7103044,46.6534597 C69.2905927,46.8505971 68.9408329,47.1590216 68.6610251,47.5787333 C68.3812172,47.9984451 68.2222355,48.5199051 68.1840799,49.1431135 L73.8120328,49.1431135 Z" id="Shape"></path>
                <path d="M81.1379104,55 C80.4383908,55 79.8310807,54.834659 79.3159799,54.503977 C78.8008791,54.1732951 78.4066045,53.721787 78.1331559,53.1494528 C77.8597074,52.5771186 77.7229831,51.947551 77.7229831,51.26075 L77.7229831,45.842653 C77.7229831,45.6010007 77.8088332,45.3975041 77.9805335,45.2321631 C78.1522337,45.0668222 78.35891,44.9841517 78.6005622,44.9841517 C78.8422144,44.9841517 79.045711,45.0668222 79.211052,45.2321631 C79.376393,45.3975041 79.4590635,45.6010007 79.4590635,45.842653 L79.4590635,51.0699719 C79.4590635,52.6216335 80.158583,53.3974643 81.5576222,53.3974643 C82.193549,53.3974643 82.7627036,53.2321233 83.2650858,52.9014413 C83.7674681,52.5707593 84.2412336,52.1256105 84.6863824,51.5659949 L84.6863824,45.842653 C84.6863824,45.6010007 84.7722325,45.3975041 84.9439328,45.2321631 C85.115633,45.0668222 85.3223093,44.9841517 85.5639615,44.9841517 C85.8056137,44.9841517 86.0091103,45.0668222 86.1744513,45.2321631 C86.3397923,45.3975041 86.4224628,45.6010007 86.4224628,45.842653 L86.4224628,54.0270319 C86.4224628,54.2686841 86.3397923,54.4753603 86.1744513,54.6470606 C86.0091103,54.8187608 85.8056137,54.904611 85.5639615,54.904611 C85.3223093,54.904611 85.115633,54.8187608 84.9439328,54.6470606 C84.7722325,54.4753603 84.6863824,54.2686841 84.6863824,54.0270319 L84.6863824,53.2448418 C84.203078,53.7790204 83.6816179,54.2050914 83.1220023,54.5230548 C82.5623866,54.8410183 81.9010227,55 81.1379104,55 Z" id="Path"></path>
                <path d="M90.2952575,54.904611 C90.0536052,54.904611 89.8501086,54.8219405 89.6847677,54.6565995 C89.5194267,54.4912585 89.4367562,54.2877619 89.4367562,54.0461097 L89.4367562,45.8617308 C89.4367562,45.6200785 89.5194267,45.4134023 89.6847677,45.2417021 C89.8501086,45.0700018 90.0536052,44.9841517 90.2952575,44.9841517 C90.5369097,44.9841517 90.7435859,45.0700018 90.9152862,45.2417021 C91.0869864,45.4134023 91.1728366,45.6200785 91.1728366,45.8617308 L91.1728366,46.6439208 C91.5289556,46.1351793 91.9582062,45.7154676 92.4605885,45.3847856 C92.9629707,45.0541036 93.6147958,44.8887626 94.4160636,44.8887626 C95.1283017,44.8887626 95.7387915,45.0795407 96.247533,45.4610968 C96.7562745,45.842653 97.1187529,46.3068796 97.334968,46.8537767 C98.1235173,45.5437673 99.2936228,44.8887626 100.845284,44.8887626 C101.557522,44.8887626 102.152114,45.0668222 102.629059,45.4229412 C103.106004,45.7790603 103.458944,46.2369276 103.687878,46.7965433 C103.916811,47.3561589 104.031278,47.9412117 104.031278,48.5517015 L104.031278,54.0461097 C104.031278,54.2877619 103.945428,54.4912585 103.773728,54.6565995 C103.602027,54.8219405 103.395351,54.904611 103.153699,54.904611 C102.912047,54.904611 102.70855,54.8219405 102.543209,54.6565995 C102.377868,54.4912585 102.295198,54.2877619 102.295198,54.0461097 L102.295198,48.895102 C102.295198,48.068397 102.148934,47.4610869 101.856408,47.0731715 C101.563882,46.6852561 101.0615,46.4912984 100.349261,46.4912984 C99.700616,46.4912984 99.1632578,46.659819 98.7371868,46.9968602 C98.3111158,47.3339015 97.9327393,47.7758707 97.6020573,48.3227678 L97.6020573,54.0461097 C97.6020573,54.2877619 97.5162072,54.4912585 97.3445069,54.6565995 C97.1728067,54.8219405 96.9661304,54.904611 96.7244782,54.904611 C96.482826,54.904611 96.2793294,54.8219405 96.1139884,54.6565995 C95.9486474,54.4912585 95.8659769,54.2877619 95.8659769,54.0461097 L95.8659769,48.895102 C95.8659769,48.068397 95.7197137,47.4610869 95.4271874,47.0731715 C95.134661,46.6852561 94.6322788,46.4912984 93.9200407,46.4912984 C93.2713953,46.4912984 92.734037,46.659819 92.307966,46.9968602 C91.881895,47.3339015 91.5035185,47.7758707 91.1728366,48.3227678 L91.1728366,54.0461097 C91.1728366,54.2877619 91.0869864,54.4912585 90.9152862,54.6565995 C90.7435859,54.8219405 90.5369097,54.904611 90.2952575,54.904611 Z" id="Path"></path>
            </g>
        </g>
    </g>
</svg>