<?xml version="1.0" encoding="UTF-8"?>
<svg width="18.8903464px" height="25.9667564px" viewBox="0 0 18.8903464 25.9667564" version="1.1" xmlns="http://www.w3.org/2000/svg" xmlns:xlink="http://www.w3.org/1999/xlink">
    <title>Group 13 Copy</title>
    <g id="Auswahl" stroke="none" stroke-width="1" fill="none" fill-rule="evenodd">
        <g id="museum4.0_Anwendungen_Detail" transform="translate(-1417.900000, -2004.400000)" fill="#172343" fill-rule="nonzero">
            <g id="Download" transform="translate(1160.000000, 1959.251500)">
                <g id="Group-24" transform="translate(259.000000, 45.148500)">
                    <path d="M8.50233221,0 C9.10984543,0 9.60233221,0.492486775 9.60233221,1.1 L9.60233221,18.5676117 C9.60233221,19.1751249 9.10984543,19.6676117 8.50233221,19.6676117 C7.89481898,19.6676117 7.40233221,19.1751249 7.40233221,18.5676117 L7.40233221,1.1 C7.40233221,0.492486775 7.89481898,0 8.50233221,0 Z" id="Path-4"></path>
                    <path d="M12.1361619,9.98771225 C12.4345119,9.45850566 13.105379,9.27135938 13.6345856,9.56970935 C14.1637922,9.86805931 14.3509385,10.5389265 14.0525885,11.068133 L9.52720281,19.0951626 C9.22885285,19.6243692 8.55798571,19.8115155 8.02877911,19.5131655 C7.49957252,19.2148155 7.31242625,18.5439484 7.61077621,18.0147418 L12.1361619,9.98771225 Z" id="Path-4-Copy"></path>
                    <path d="M7.47279719,9.98771225 C7.77114715,9.45850566 8.44201429,9.27135938 8.97122089,9.56970935 C9.50042748,9.86805931 9.68757375,10.5389265 9.38922379,11.068133 L4.86383806,19.0951626 C4.56548809,19.6243692 3.89462096,19.8115155 3.36541436,19.5131655 C2.83620777,19.2148155 2.64906149,18.5439484 2.94741146,18.0147418 L7.47279719,9.98771225 Z" id="Path-4-Copy-2" transform="translate(6.168318, 14.541437) scale(-1, 1) translate(-6.168318, -14.541437) "></path>
                    <path d="M16.6903464,23.7667564 C17.2978596,23.7667564 17.7903464,24.2592432 17.7903464,24.8667564 C17.7903464,25.4742697 17.2978596,25.9667564 16.6903464,25.9667564 L4.4408921e-16,25.9667564 C-0.607513225,25.9667564 -1.1,25.4742697 -1.1,24.8667564 C-1.1,24.2592432 -0.607513225,23.7667564 4.4408921e-16,23.7667564 L16.6903464,23.7667564 Z" id="Path-4-Copy-3"></path>
                </g>
            </g>
        </g>
    </g>
</svg>