<?xml version="1.0" encoding="UTF-8"?>
<svg width="21.9604388px" height="21.9604388px" viewBox="0 0 21.9604388 21.9604388" version="1.1" xmlns="http://www.w3.org/2000/svg" xmlns:xlink="http://www.w3.org/1999/xlink">
    <title>Group 23</title>
    <g id="Auswahl" stroke="none" stroke-width="1" fill="none" fill-rule="evenodd">
        <g id="museum4.0_Anwendungen_Detail" transform="translate(-1445.290335, -1888.824662)" fill="#FFFFFF" fill-rule="nonzero">
            <g id="Group-23" transform="translate(1456.435275, 1899.640160) rotate(-135.000000) translate(-1456.435275, -1899.640160) translate(1450.866286, 1890.140160)">
                <path d="M5.57132172,-0.566756432 C6.17883494,-0.566756432 6.67132172,-0.0742696568 6.67132172,0.533243568 L6.67132172,18.0008553 C6.67132172,18.6083685 6.17883494,19.1008553 5.57132172,19.1008553 C4.96380849,19.1008553 4.47132172,18.6083685 4.47132172,18.0008553 L4.47132172,0.533243568 C4.47132172,-0.0742696568 4.96380849,-0.566756432 5.57132172,-0.566756432 Z" id="Path-4"></path>
                <path d="M9.20515145,9.42095582 C9.50350141,8.89174923 10.1743686,8.70460295 10.7035751,9.00295292 C11.2327817,9.30130288 11.419928,9.97217002 11.1215781,10.5013766 L6.59619232,18.5284062 C6.29784235,19.0576127 5.62697521,19.244759 5.09776862,18.9464091 C4.56856203,18.6480591 4.38141575,17.977192 4.67976572,17.4479854 L9.20515145,9.42095582 Z" id="Path-4-Copy"></path>
                <path d="M4.5417867,9.42095582 C4.84013666,8.89174923 5.5110038,8.70460295 6.04021039,9.00295292 C6.56941699,9.30130288 6.75656326,9.97217002 6.4582133,10.5013766 L1.93282757,18.5284062 C1.6344776,19.0576127 0.963610464,19.244759 0.434403871,18.9464091 C-0.0948027222,18.6480591 -0.281948998,17.977192 0.0164009651,17.4479854 L4.5417867,9.42095582 Z" id="Path-4-Copy-2" transform="translate(3.237307, 13.974681) scale(-1, 1) translate(-3.237307, -13.974681) "></path>
            </g>
        </g>
    </g>
</svg>