<?xml version="1.0" encoding="UTF-8"?>
<svg width="117px" height="40px" viewBox="0 0 117 40" version="1.1" xmlns="http://www.w3.org/2000/svg" xmlns:xlink="http://www.w3.org/1999/xlink">
    <title>Materialisierung des Copy</title>
    <g id="mobile" stroke="none" stroke-width="1" fill="none" fill-rule="evenodd">
        <g id="museum4.0_mobil_Home" transform="translate(-12.000000, -792.000000)" fill="#FFFFFF" fill-rule="nonzero">
            <g id="Materialisierung-des-Copy" transform="translate(12.000000, 792.000000)">
                <path d="M1.30422822,10.2673285 C1.12848115,10.2673285 0.980483623,10.2072045 0.860235632,10.0869565 C0.73998764,9.96670853 0.679863645,9.818711 0.679863645,9.64296394 L0.679863645,1.35972729 C0.679863645,1.10998146 0.767737177,0.894922552 0.943484241,0.714550565 C1.11923131,0.534178578 1.33197775,0.443992584 1.58172358,0.443992584 L2.03959093,0.443992584 C2.22458784,0.443992584 2.39339752,0.499491657 2.54601997,0.610489803 C2.69864243,0.721487949 2.81195303,0.860235632 2.8859518,1.02673285 L6.03552419,8.87985168 L9.18509659,1.02673285 C9.25909535,0.860235632 9.37240596,0.721487949 9.52502841,0.610489803 C9.67765086,0.499491657 9.84646054,0.443992584 10.0314574,0.443992584 L10.4893248,0.443992584 C10.7390706,0.443992584 10.9518171,0.534178578 11.1275641,0.714550565 C11.3033112,0.894922552 11.3911847,1.10998146 11.3911847,1.35972729 L11.3911847,9.64296394 C11.3911847,9.818711 11.3310607,9.96670853 11.2108128,10.0869565 C11.0905648,10.2072045 10.9425672,10.2673285 10.7668202,10.2673285 C10.5910731,10.2673285 10.4407631,10.2072045 10.3158902,10.0869565 C10.1910173,9.96670853 10.1285808,9.818711 10.1285808,9.64296394 L10.1285808,1.76209557 L6.92350936,9.68458824 C6.8495106,9.86033531 6.73157507,10.0013955 6.56970277,10.1077687 C6.40783047,10.2141419 6.22977095,10.2673285 6.03552419,10.2673285 C5.84127744,10.2673285 5.66321791,10.2141419 5.50134561,10.1077687 C5.33947332,10.0013955 5.22153779,9.86033531 5.14753902,9.68458824 L1.94246756,1.76209557 L1.94246756,9.64296394 C1.94246756,9.818711 1.8800311,9.96670853 1.75515818,10.0869565 C1.63028527,10.2072045 1.47997528,10.2673285 1.30422822,10.2673285 Z" id="Path"></path>
                <path d="M15.6368638,10.3367024 C15.2298706,10.3367024 14.8529394,10.2534537 14.5060702,10.0869565 C14.159201,9.9204593 13.8840181,9.67765086 13.6805215,9.35853119 C13.4770249,9.03941152 13.3752766,8.67173016 13.3752766,8.25548711 C13.3752766,7.57099854 13.6458346,7.02525766 14.1869505,6.61826446 C14.7280665,6.21127126 15.5212408,6.00777465 16.5664733,6.00777465 L18.2453203,6.00777465 L18.2453203,5.89677651 C18.2453203,5.28628671 18.0950103,4.84691904 17.7943903,4.57867352 C17.4937703,4.310428 17.0243406,4.17630524 16.3861013,4.17630524 C16.0346072,4.17630524 15.7224249,4.20405478 15.4495545,4.25955385 C15.176684,4.31505293 14.8737516,4.39830154 14.5407571,4.50929968 C14.4667584,4.52779937 14.4066344,4.53704922 14.3603851,4.53704922 C14.2216375,4.53704922 14.1013895,4.48617507 13.9996412,4.38442677 C13.8978929,4.28267847 13.8470187,4.15780555 13.8470187,4.00980803 C13.8470187,3.7600622 13.9672667,3.58431513 14.2077627,3.48256683 C14.9939996,3.14957239 15.7941112,2.98307517 16.6080976,2.98307517 C17.2463369,2.98307517 17.7851404,3.11257301 18.2245081,3.37156869 C18.6638758,3.63056436 18.9876204,3.96587126 19.1957419,4.37748938 C19.4038634,4.78910751 19.5079242,5.23541256 19.5079242,5.71640452 L19.5079242,9.64296394 C19.5079242,9.818711 19.4454877,9.96670853 19.3206148,10.0869565 C19.1957419,10.2072045 19.0454319,10.2673285 18.8696848,10.2673285 C18.6939378,10.2673285 18.5459402,10.2072045 18.4256922,10.0869565 C18.3054443,9.96670853 18.2453203,9.818711 18.2453203,9.64296394 L18.2453203,9.28221996 C17.5608317,9.98520822 16.6913462,10.3367024 15.6368638,10.3367024 Z M16.1086059,9.22672089 C16.5155991,9.22672089 16.9087176,9.12728505 17.2879612,8.92841337 C17.6672049,8.72954169 17.9863246,8.48210833 18.2453203,8.18611327 L18.2453203,7.02063274 L16.7329705,7.02063274 C15.3362438,7.02063274 14.6378805,7.38600163 14.6378805,8.11673943 C14.6378805,8.44973387 14.7511911,8.71797939 14.9778123,8.92147599 C15.2044335,9.12497259 15.5813648,9.22672089 16.1086059,9.22672089 Z" id="Shape"></path>
                <path d="M24.0727229,10.3367024 C22.7222455,10.3367024 22.0470068,9.72621255 22.0470068,8.50523294 L22.0470068,4.20405478 L21.0618982,4.20405478 C20.9878994,4.20405478 20.925463,4.17861771 20.8745888,4.12774356 C20.8237147,4.07686941 20.7982776,4.01443295 20.7982776,3.94043418 C20.7982776,3.84793573 20.8399019,3.76931204 20.9231505,3.70456312 L22.810119,1.85921895 C22.8933676,1.77597034 22.9719913,1.73434603 23.0459901,1.73434603 C23.1199888,1.73434603 23.1824253,1.76209557 23.2332994,1.81759464 C23.2841736,1.87309371 23.3096107,1.93784263 23.3096107,2.0118414 L23.3096107,3.12182286 L24.8774595,3.12182286 C25.0347069,3.12182286 25.1642047,3.17269701 25.265953,3.27444531 C25.3677013,3.37619361 25.4185754,3.50569145 25.4185754,3.66293882 C25.4185754,3.81093635 25.3677013,3.93812172 25.265953,4.04449495 C25.1642047,4.15086817 25.0347069,4.20405478 24.8774595,4.20405478 L23.3096107,4.20405478 L23.3096107,8.39423479 C23.3096107,8.75497877 23.3951717,8.98391245 23.5662939,9.08103582 C23.737416,9.1781592 23.9524749,9.22672089 24.2114706,9.22672089 C24.3964675,9.22672089 24.5814644,9.19897135 24.7664613,9.14347228 C24.8034607,9.13422243 24.8427726,9.12497259 24.8843969,9.11572274 C24.9260212,9.1064729 24.9792078,9.10184798 25.0439567,9.10184798 C25.1734545,9.10184798 25.2890776,9.15040966 25.3908259,9.24753304 C25.4925742,9.34465642 25.5434484,9.46259195 25.5434484,9.60133963 C25.5434484,9.81408608 25.4370751,9.97595838 25.2243287,10.0869565 C24.8635847,10.2534537 24.4797161,10.3367024 24.0727229,10.3367024 Z" id="Path"></path>
                <path d="M30.0943723,10.3367024 C28.9658912,10.3367024 28.0848434,10.0152702 27.451229,9.37240596 C26.8176146,8.72954169 26.5008074,7.8253693 26.5008074,6.65988876 C26.5008074,6.00314973 26.6210554,5.39728485 26.8615513,4.84229412 C27.1020473,4.28730339 27.4720411,3.83868588 27.9715328,3.4964416 C28.4710245,3.15419732 29.0861392,2.98307517 29.816877,2.98307517 C30.5013655,2.98307517 31.0933557,3.14263501 31.5928473,3.46175468 C32.092339,3.78087435 32.4715826,4.20636724 32.7305783,4.73823336 C32.989574,5.27009948 33.1190718,5.85052728 33.1190718,6.47951678 C33.1190718,6.65526384 33.0612603,6.80326137 32.9456372,6.92350936 C32.8300142,7.04375735 32.6750792,7.10388135 32.4808325,7.10388135 L27.777286,7.10388135 C27.8512848,7.75137053 28.0917808,8.25548711 28.498774,8.61623109 C28.9057672,8.97697506 29.4746327,9.15734705 30.2053705,9.15734705 C30.593864,9.15734705 30.9337958,9.12034767 31.225166,9.0463489 C31.5165361,8.97235014 31.8009688,8.86597692 32.0784642,8.72722923 C32.152463,8.69022985 32.2357116,8.67173016 32.32821,8.67173016 C32.4762076,8.67173016 32.6057054,8.72260431 32.7167035,8.82435261 C32.8277017,8.92610091 32.8832008,9.05559875 32.8832008,9.21284612 C32.8832008,9.41634272 32.7629528,9.58746486 32.5224568,9.72621255 C32.1617128,9.92970915 31.8055938,10.0823316 31.4540996,10.1840799 C31.1026055,10.2858282 30.6493631,10.3367024 30.0943723,10.3367024 Z M31.8703427,6.0771485 C31.8425931,5.62390607 31.7246576,5.2446624 31.5165361,4.9394175 C31.3084146,4.6341726 31.0517314,4.40986384 30.7464865,4.26649124 C30.4412416,4.12311863 30.1313717,4.05143233 29.816877,4.05143233 C29.5023822,4.05143233 29.1925124,4.12311863 28.8872675,4.26649124 C28.5820226,4.40986384 28.3276519,4.6341726 28.1241553,4.9394175 C27.9206587,5.2446624 27.8050356,5.62390607 27.777286,6.0771485 L31.8703427,6.0771485 Z" id="Shape"></path>
                <path d="M35.4084086,10.2673285 C35.2326615,10.2673285 35.084664,10.2072045 34.964416,10.0869565 C34.844168,9.96670853 34.784044,9.818711 34.784044,9.64296394 L34.784044,3.69068836 C34.784044,3.51494129 34.844168,3.3646313 34.964416,3.23975839 C35.084664,3.11488547 35.2326615,3.05244902 35.4084086,3.05244902 C35.5841557,3.05244902 35.7344656,3.11488547 35.8593386,3.23975839 C35.9842115,3.3646313 36.0466479,3.51494129 36.0466479,3.69068836 L36.0466479,4.28730339 C36.6941371,3.41781791 37.42025,2.98307517 38.2249865,2.98307517 L38.2943604,2.98307517 C38.4701074,2.98307517 38.6157925,3.04319917 38.7314156,3.16344716 C38.8470387,3.28369515 38.9048502,3.43169268 38.9048502,3.60743975 C38.9048502,3.78318681 38.8447262,3.92655942 38.7244782,4.03755756 C38.6042302,4.14855571 38.4516078,4.20405478 38.2666108,4.20405478 L38.197237,4.20405478 C37.7532444,4.20405478 37.3462512,4.31274047 36.9762574,4.53011184 C36.6062636,4.7474832 36.2963938,5.04579072 36.0466479,5.42503439 L36.0466479,9.64296394 C36.0466479,9.818711 35.9842115,9.96670853 35.8593386,10.0869565 C35.7344656,10.2072045 35.5841557,10.2673285 35.4084086,10.2673285 Z" id="Path"></path>
                <path d="M40.6946953,1.67884696 C40.5004485,1.67884696 40.3339513,1.60947312 40.1952036,1.47072544 C40.056456,1.33197775 39.9870821,1.16548053 39.9870821,0.971233778 L39.9870821,0.915734705 C39.9870821,0.721487949 40.056456,0.55499073 40.1952036,0.416243048 C40.3339513,0.277495365 40.5004485,0.208121524 40.6946953,0.208121524 L40.7779439,0.208121524 C40.9721907,0.208121524 41.1386879,0.277495365 41.2774356,0.416243048 C41.4161832,0.55499073 41.4855571,0.721487949 41.4855571,0.915734705 L41.4855571,0.971233778 C41.4855571,1.16548053 41.4161832,1.33197775 41.2774356,1.47072544 C41.1386879,1.60947312 40.9721907,1.67884696 40.7779439,1.67884696 L40.6946953,1.67884696 Z M40.7224448,10.2673285 C40.5466978,10.2673285 40.3987002,10.2072045 40.2784522,10.0869565 C40.1582043,9.96670853 40.0980803,9.818711 40.0980803,9.64296394 L40.0980803,3.69068836 C40.0980803,3.51494129 40.1582043,3.3646313 40.2784522,3.23975839 C40.3987002,3.11488547 40.5466978,3.05244902 40.7224448,3.05244902 C40.9074417,3.05244902 41.0600642,3.11257301 41.1803122,3.232821 C41.3005602,3.353069 41.3606842,3.50569145 41.3606842,3.69068836 L41.3606842,9.64296394 C41.3606842,9.818711 41.2982477,9.96670853 41.1733748,10.0869565 C41.0485019,10.2072045 40.8981919,10.2673285 40.7224448,10.2673285 Z" id="Shape"></path>
                <path d="M45.3566174,10.3367024 C44.9496242,10.3367024 44.572693,10.2534537 44.2258238,10.0869565 C43.8789546,9.9204593 43.6037717,9.67765086 43.4002751,9.35853119 C43.1967785,9.03941152 43.0950302,8.67173016 43.0950302,8.25548711 C43.0950302,7.57099854 43.3655882,7.02525766 43.9067041,6.61826446 C44.4478201,6.21127126 45.2409944,6.00777465 46.2862269,6.00777465 L47.9650739,6.00777465 L47.9650739,5.89677651 C47.9650739,5.28628671 47.8147639,4.84691904 47.5141439,4.57867352 C47.2135239,4.310428 46.7440943,4.17630524 46.1058549,4.17630524 C45.7543608,4.17630524 45.4421785,4.20405478 45.1693081,4.25955385 C44.8964376,4.31505293 44.5935052,4.39830154 44.2605107,4.50929968 C44.186512,4.52779937 44.126388,4.53704922 44.0801387,4.53704922 C43.9413911,4.53704922 43.8211431,4.48617507 43.7193948,4.38442677 C43.6176465,4.28267847 43.5667723,4.15780555 43.5667723,4.00980803 C43.5667723,3.7600622 43.6870203,3.58431513 43.9275163,3.48256683 C44.7137532,3.14957239 45.5138648,2.98307517 46.3278512,2.98307517 C46.9660905,2.98307517 47.504894,3.11257301 47.9442617,3.37156869 C48.3836294,3.63056436 48.707374,3.96587126 48.9154955,4.37748938 C49.123617,4.78910751 49.2276778,5.23541256 49.2276778,5.71640452 L49.2276778,9.64296394 C49.2276778,9.818711 49.1652413,9.96670853 49.0403684,10.0869565 C48.9154955,10.2072045 48.7651855,10.2673285 48.5894384,10.2673285 C48.4136914,10.2673285 48.2656938,10.2072045 48.1454458,10.0869565 C48.0251979,9.96670853 47.9650739,9.818711 47.9650739,9.64296394 L47.9650739,9.28221996 C47.2805853,9.98520822 46.4110998,10.3367024 45.3566174,10.3367024 Z M45.8283595,9.22672089 C46.2353528,9.22672089 46.6284712,9.12728505 47.0077148,8.92841337 C47.3869585,8.72954169 47.7060782,8.48210833 47.9650739,8.18611327 L47.9650739,7.02063274 L46.4527241,7.02063274 C45.0559974,7.02063274 44.3576341,7.38600163 44.3576341,8.11673943 C44.3576341,8.44973387 44.4709447,8.71797939 44.6975659,8.92147599 C44.9241871,9.12497259 45.3011184,9.22672089 45.8283595,9.22672089 Z" id="Shape"></path>
                <path d="M51.9748819,10.2673285 C51.7991348,10.2673285 51.6511373,10.2072045 51.5308893,10.0869565 C51.4106413,9.96670853 51.3505173,9.818711 51.3505173,9.64296394 L51.3505173,0.63823934 C51.3505173,0.462492275 51.4106413,0.312182286 51.5308893,0.187309371 C51.6511373,0.0624364571 51.7991348,0 51.9748819,0 C52.1598788,0 52.3125012,0.0601239958 52.4327492,0.180371987 C52.5529972,0.300619979 52.6131212,0.45324243 52.6131212,0.63823934 L52.6131212,9.64296394 C52.6131212,9.818711 52.5506848,9.96670853 52.4258119,10.0869565 C52.3009389,10.2072045 52.1506289,10.2673285 51.9748819,10.2673285 Z" id="Path"></path>
                <path d="M55.4019496,1.67884696 C55.2077029,1.67884696 55.0412057,1.60947312 54.902458,1.47072544 C54.7637103,1.33197775 54.6943365,1.16548053 54.6943365,0.971233778 L54.6943365,0.915734705 C54.6943365,0.721487949 54.7637103,0.55499073 54.902458,0.416243048 C55.0412057,0.277495365 55.2077029,0.208121524 55.4019496,0.208121524 L55.4851983,0.208121524 C55.679445,0.208121524 55.8459422,0.277495365 55.9846899,0.416243048 C56.1234376,0.55499073 56.1928114,0.721487949 56.1928114,0.915734705 L56.1928114,0.971233778 C56.1928114,1.16548053 56.1234376,1.33197775 55.9846899,1.47072544 C55.8459422,1.60947312 55.679445,1.67884696 55.4851983,1.67884696 L55.4019496,1.67884696 Z M55.4296992,10.2673285 C55.2539521,10.2673285 55.1059546,10.2072045 54.9857066,10.0869565 C54.8654586,9.96670853 54.8053346,9.818711 54.8053346,9.64296394 L54.8053346,3.69068836 C54.8053346,3.51494129 54.8654586,3.3646313 54.9857066,3.23975839 C55.1059546,3.11488547 55.2539521,3.05244902 55.4296992,3.05244902 C55.6146961,3.05244902 55.7673185,3.11257301 55.8875665,3.232821 C56.0078145,3.353069 56.0679385,3.50569145 56.0679385,3.69068836 L56.0679385,9.64296394 C56.0679385,9.818711 56.0055021,9.96670853 55.8806291,10.0869565 C55.7557562,10.2072045 55.6054462,10.2673285 55.4296992,10.2673285 Z" id="Shape"></path>
                <path d="M60.5494887,10.3367024 C59.6245041,10.3367024 58.7827682,10.1285808 58.0242808,9.71233778 C57.8670335,9.60133963 57.7884098,9.44871718 57.7884098,9.25447043 C57.7884098,9.1064729 57.8392839,8.97697506 57.9410322,8.86597692 C58.0427805,8.75497877 58.1722784,8.6994797 58.3295257,8.6994797 C58.4127744,8.6994797 58.496023,8.71797939 58.5792716,8.75497877 C58.8752666,8.88447661 59.1712617,8.98622491 59.4672567,9.06022367 C59.7632518,9.13422243 60.0962462,9.17122182 60.4662401,9.17122182 C61.4929729,9.17122182 62.0063393,8.8428523 62.0063393,8.18611327 C62.0063393,7.97336682 61.8884038,7.81149453 61.6525327,7.70049638 C61.4166617,7.58949824 61.0304806,7.46462532 60.4939896,7.32587764 C59.9482487,7.1963798 59.4973187,7.06225704 59.1411997,6.92350936 C58.7850806,6.78476168 58.4798357,6.57432769 58.225465,6.2922074 C57.9710942,6.01008712 57.8439089,5.63778083 57.8439089,5.17528856 C57.8439089,4.52779937 58.0774675,4.00055818 58.5445847,3.59356498 C59.0117019,3.18657178 59.6800032,2.98307517 60.5494887,2.98307517 C61.2617268,2.98307517 61.9323406,3.09869824 62.5613301,3.32994438 C62.6908279,3.36694376 62.7902637,3.4363176 62.8596376,3.53806591 C62.9290114,3.63981421 62.9636983,3.74618743 62.9636983,3.85718558 C62.9636983,4.0051831 62.9105117,4.13468094 62.8041385,4.24567909 C62.6977653,4.35667723 62.565955,4.41217631 62.4087076,4.41217631 C62.3624584,4.41217631 62.3023344,4.40292646 62.2283356,4.38442677 C61.6918446,4.21792955 61.1646034,4.13468094 60.646612,4.13468094 C60.1471204,4.13468094 59.7563144,4.22486693 59.4741941,4.40523892 C59.1920738,4.58561091 59.0510137,4.81916951 59.0510137,5.10591472 C59.0510137,5.38341008 59.1805115,5.58690668 59.4395072,5.71640452 C59.6985029,5.84590236 60.1008712,5.97077527 60.646612,6.09102326 C61.1923529,6.22977095 61.6363455,6.36620617 61.9785898,6.50032893 C62.3208341,6.63445169 62.6145167,6.84488567 62.8596376,7.13163088 C63.1047585,7.41837609 63.2273189,7.80224468 63.2273189,8.28323665 C63.2273189,8.87522676 62.9937603,9.36546857 62.5266431,9.75396208 C62.0595259,10.1424556 61.4004745,10.3367024 60.5494887,10.3367024 Z" id="Path"></path>
                <path d="M65.5166557,1.67884696 C65.3224089,1.67884696 65.1559117,1.60947312 65.017164,1.47072544 C64.8784164,1.33197775 64.8090425,1.16548053 64.8090425,0.971233778 L64.8090425,0.915734705 C64.8090425,0.721487949 64.8784164,0.55499073 65.017164,0.416243048 C65.1559117,0.277495365 65.3224089,0.208121524 65.5166557,0.208121524 L65.5999043,0.208121524 C65.7941511,0.208121524 65.9606483,0.277495365 66.099396,0.416243048 C66.2381437,0.55499073 66.3075175,0.721487949 66.3075175,0.915734705 L66.3075175,0.971233778 C66.3075175,1.16548053 66.2381437,1.33197775 66.099396,1.47072544 C65.9606483,1.60947312 65.7941511,1.67884696 65.5999043,1.67884696 L65.5166557,1.67884696 Z M65.5444052,10.2673285 C65.3686582,10.2673285 65.2206606,10.2072045 65.1004127,10.0869565 C64.9801647,9.96670853 64.9200407,9.818711 64.9200407,9.64296394 L64.9200407,3.69068836 C64.9200407,3.51494129 64.9801647,3.3646313 65.1004127,3.23975839 C65.2206606,3.11488547 65.3686582,3.05244902 65.5444052,3.05244902 C65.7294021,3.05244902 65.8820246,3.11257301 66.0022726,3.232821 C66.1225206,3.353069 66.1826446,3.50569145 66.1826446,3.69068836 L66.1826446,9.64296394 C66.1826446,9.818711 66.1202081,9.96670853 65.9953352,10.0869565 C65.8704623,10.2072045 65.7201523,10.2673285 65.5444052,10.2673285 Z" id="Shape"></path>
                <path d="M71.5383051,10.3367024 C70.409824,10.3367024 69.5287762,10.0152702 68.8951618,9.37240596 C68.2615474,8.72954169 67.9447401,7.8253693 67.9447401,6.65988876 C67.9447401,6.00314973 68.0649881,5.39728485 68.3054841,4.84229412 C68.5459801,4.28730339 68.9159739,3.83868588 69.4154656,3.4964416 C69.9149572,3.15419732 70.530072,2.98307517 71.2608098,2.98307517 C71.9452983,2.98307517 72.5372884,3.14263501 73.0367801,3.46175468 C73.5362718,3.78087435 73.9155154,4.20636724 74.1745111,4.73823336 C74.4335068,5.27009948 74.5630046,5.85052728 74.5630046,6.47951678 C74.5630046,6.65526384 74.5051931,6.80326137 74.38957,6.92350936 C74.2739469,7.04375735 74.119012,7.10388135 73.9247653,7.10388135 L69.2212188,7.10388135 C69.2952176,7.75137053 69.5357136,8.25548711 69.9427068,8.61623109 C70.3497,8.97697506 70.9185655,9.15734705 71.6493033,9.15734705 C72.0377968,9.15734705 72.3777286,9.12034767 72.6690987,9.0463489 C72.9604689,8.97235014 73.2449016,8.86597692 73.522397,8.72722923 C73.5963957,8.69022985 73.6796444,8.67173016 73.7721428,8.67173016 C73.9201403,8.67173016 74.0496382,8.72260431 74.1606363,8.82435261 C74.2716345,8.92610091 74.3271335,9.05559875 74.3271335,9.21284612 C74.3271335,9.41634272 74.2068856,9.58746486 73.9663896,9.72621255 C73.6056456,9.92970915 73.2495265,10.0823316 72.8980324,10.1840799 C72.5465383,10.2858282 72.0932959,10.3367024 71.5383051,10.3367024 Z M73.3142755,6.0771485 C73.2865259,5.62390607 73.1685904,5.2446624 72.9604689,4.9394175 C72.7523473,4.6341726 72.4956641,4.40986384 72.1904192,4.26649124 C71.8851743,4.12311863 71.5753045,4.05143233 71.2608098,4.05143233 C70.946315,4.05143233 70.6364452,4.12311863 70.3312003,4.26649124 C70.0259554,4.40986384 69.7715846,4.6341726 69.568088,4.9394175 C69.3645914,5.2446624 69.2489684,5.62390607 69.2212188,6.0771485 L73.3142755,6.0771485 Z" id="Shape"></path>
                <path d="M76.8523414,10.2673285 C76.6765943,10.2673285 76.5285968,10.2072045 76.4083488,10.0869565 C76.2881008,9.96670853 76.2279768,9.818711 76.2279768,9.64296394 L76.2279768,3.69068836 C76.2279768,3.51494129 76.2881008,3.3646313 76.4083488,3.23975839 C76.5285968,3.11488547 76.6765943,3.05244902 76.8523414,3.05244902 C77.0280884,3.05244902 77.1783984,3.11488547 77.3032713,3.23975839 C77.4281442,3.3646313 77.4905807,3.51494129 77.4905807,3.69068836 L77.4905807,4.28730339 C78.1380699,3.41781791 78.8641828,2.98307517 79.6689193,2.98307517 L79.7382932,2.98307517 C79.9140402,2.98307517 80.0597253,3.04319917 80.1753484,3.16344716 C80.2909714,3.28369515 80.348783,3.43169268 80.348783,3.60743975 C80.348783,3.78318681 80.288659,3.92655942 80.168411,4.03755756 C80.048163,4.14855571 79.8955405,4.20405478 79.7105436,4.20405478 L79.6411698,4.20405478 C79.1971772,4.20405478 78.790184,4.31274047 78.4201902,4.53011184 C78.0501964,4.7474832 77.7403265,5.04579072 77.4905807,5.42503439 L77.4905807,9.64296394 C77.4905807,9.818711 77.4281442,9.96670853 77.3032713,10.0869565 C77.1783984,10.2072045 77.0280884,10.2673285 76.8523414,10.2673285 Z" id="Path"></path>
                <path d="M83.9562227,10.3367024 C83.4474812,10.3367024 83.0058011,10.2164544 82.6311823,9.97595838 C82.2565636,9.73546239 81.9698184,9.40709288 81.7709467,8.99084983 C81.572075,8.57460678 81.4726392,8.11673943 81.4726392,7.61724777 L81.4726392,3.67681359 C81.4726392,3.50106652 81.5350757,3.353069 81.6599486,3.232821 C81.7848215,3.11257301 81.9351315,3.05244902 82.1108785,3.05244902 C82.2866256,3.05244902 82.4346231,3.11257301 82.5548711,3.232821 C82.6751191,3.353069 82.7352431,3.50106652 82.7352431,3.67681359 L82.7352431,7.47850009 C82.7352431,8.60698124 83.2439846,9.17122182 84.2614676,9.17122182 C84.7239599,9.17122182 85.1378905,9.05097383 85.5032594,8.81047784 C85.8686283,8.56998186 86.213185,8.24623727 86.5369296,7.83924406 L86.5369296,3.67681359 C86.5369296,3.50106652 86.5993661,3.353069 86.724239,3.232821 C86.8491119,3.11257301 86.9994219,3.05244902 87.1751689,3.05244902 C87.350916,3.05244902 87.4989135,3.11257301 87.6191615,3.232821 C87.7394095,3.353069 87.7995335,3.50106652 87.7995335,3.67681359 L87.7995335,9.62908917 C87.7995335,9.80483623 87.7394095,9.95514622 87.6191615,10.0800191 C87.4989135,10.2048921 87.350916,10.2673285 87.1751689,10.2673285 C86.9994219,10.2673285 86.8491119,10.2048921 86.724239,10.0800191 C86.5993661,9.95514622 86.5369296,9.80483623 86.5369296,9.62908917 L86.5369296,9.06022367 C86.1854355,9.44871718 85.8061918,9.75858701 85.3991986,9.98983314 C84.9922054,10.2210793 84.5112134,10.3367024 83.9562227,10.3367024 Z" id="Path"></path>
                <path d="M90.6161115,10.2673285 C90.4403644,10.2673285 90.2923669,10.2072045 90.1721189,10.0869565 C90.0518709,9.96670853 89.9917469,9.818711 89.9917469,9.64296394 L89.9917469,3.69068836 C89.9917469,3.51494129 90.0518709,3.3646313 90.1721189,3.23975839 C90.2923669,3.11488547 90.4403644,3.05244902 90.6161115,3.05244902 C90.7918585,3.05244902 90.9421685,3.11488547 91.0670414,3.23975839 C91.1919144,3.3646313 91.2543508,3.51494129 91.2543508,3.69068836 L91.2543508,4.25955385 C91.6058449,3.87106034 91.9850886,3.56119052 92.3920818,3.32994438 C92.799075,3.09869824 93.280067,2.98307517 93.8350577,2.98307517 C94.3437992,2.98307517 94.7854793,3.10332317 95.1600981,3.34381915 C95.5347168,3.58431513 95.821462,3.91268465 96.0203337,4.3289277 C96.2192054,4.74517074 96.3186412,5.2030381 96.3186412,5.70252975 L96.3186412,9.64296394 C96.3186412,9.818711 96.2562048,9.96670853 96.1313319,10.0869565 C96.0064589,10.2072045 95.856149,10.2673285 95.6804019,10.2673285 C95.5046548,10.2673285 95.3566573,10.2072045 95.2364093,10.0869565 C95.1161613,9.96670853 95.0560373,9.818711 95.0560373,9.64296394 L95.0560373,5.84127744 C95.0560373,4.71279628 94.5472958,4.14855571 93.5298128,4.14855571 C93.0673205,4.14855571 92.6533899,4.2688037 92.2880211,4.50929968 C91.9226522,4.74979567 91.5780954,5.07354026 91.2543508,5.48053346 L91.2543508,9.64296394 C91.2543508,9.818711 91.1919144,9.96670853 91.0670414,10.0869565 C90.9421685,10.2072045 90.7918585,10.2673285 90.6161115,10.2673285 Z" id="Path"></path>
                <path d="M101.743676,13.527899 C101.207185,13.527899 100.666069,13.4585252 100.120328,13.3197775 C99.5745868,13.1810298 99.1259693,13.0099077 98.7744752,12.8064111 C98.607978,12.7046628 98.5247294,12.5427905 98.5247294,12.3207942 C98.5247294,12.1727967 98.577916,12.0409864 98.6842892,11.9253633 C98.7906624,11.8097402 98.9224727,11.7519287 99.0797201,11.7519287 C99.1537189,11.7519287 99.2369675,11.7704284 99.3294659,11.8074278 C100.032454,12.1589219 100.795566,12.334669 101.618803,12.334669 C103.034029,12.334669 103.741642,11.5808066 103.741642,10.0730818 L103.741642,9.14347228 C103.084903,9.84646054 102.294041,10.1979547 101.369057,10.1979547 C100.823316,10.1979547 100.293762,10.0615194 99.7803959,9.788649 C99.2670295,9.51577856 98.8438491,9.10878536 98.5108546,8.5676694 C98.1778602,8.02655344 98.011363,7.36750194 98.011363,6.59051492 C98.011363,5.8135279 98.1778602,5.15447641 98.5108546,4.61336044 C98.8438491,4.07224448 99.2670295,3.66525128 99.7803959,3.39238084 C100.293762,3.1195104 100.823316,2.98307517 101.369057,2.98307517 C102.294041,2.98307517 103.084903,3.3345693 103.741642,4.03755756 L103.741642,3.69068836 C103.741642,3.51494129 103.801766,3.3646313 103.922014,3.23975839 C104.042262,3.11488547 104.19026,3.05244902 104.366007,3.05244902 C104.541754,3.05244902 104.692064,3.11488547 104.816937,3.23975839 C104.94181,3.3646313 105.004246,3.51494129 105.004246,3.69068836 L105.004246,9.89270977 C105.004246,11.0581903 104.722126,11.9554253 104.157885,12.5844148 C103.593645,13.2134043 102.788908,13.527899 101.743676,13.527899 Z M101.632677,9.0463489 C102.06742,9.0463489 102.451289,8.95385045 102.784283,8.76885354 C103.117278,8.58385663 103.436397,8.3341108 103.741642,8.01961605 L103.741642,5.16141379 C103.436397,4.84691904 103.117278,4.59717322 102.784283,4.41217631 C102.451289,4.2271794 102.06742,4.13468094 101.632677,4.13468094 C100.938939,4.13468094 100.372386,4.34511493 99.9330184,4.7659829 C99.4936507,5.18685087 99.2739669,5.79502821 99.2739669,6.59051492 C99.2739669,7.38600163 99.4936507,7.99417898 99.9330184,8.41504695 C100.372386,8.83591492 100.938939,9.0463489 101.632677,9.0463489 Z" id="Shape"></path>
                <path d="M3.35769392,25.1683512 C2.7842035,25.1683512 2.24077507,25.0226661 1.72740865,24.731296 C1.21404222,24.4399258 0.797799175,24.0144329 0.478679505,23.4548173 C0.159559835,22.8952016 0,22.2407751 0,21.4915376 C0,20.7423001 0.159559835,20.0878735 0.478679505,19.5282579 C0.797799175,18.9686422 1.21404222,18.5431493 1.72740865,18.2517792 C2.24077507,17.9604091 2.7842035,17.814724 3.35769392,17.814724 C4.26417878,17.814724 5.05504057,18.1662181 5.73027929,18.8692064 L5.73027929,15.4698882 C5.73027929,15.2848913 5.79271575,15.1322688 5.91758866,15.0120208 C6.04246158,14.8917728 6.19277156,14.8316488 6.36851863,14.8316488 C6.54426569,14.8316488 6.69226322,14.8940853 6.81251121,15.0189582 C6.9327592,15.1438311 6.9928832,15.2941411 6.9928832,15.4698882 L6.9928832,24.4746128 C6.9928832,24.6503598 6.9327592,24.7983574 6.81251121,24.9186053 C6.69226322,25.0388533 6.54426569,25.0989773 6.36851863,25.0989773 C6.19277156,25.0989773 6.04246158,25.0388533 5.91758866,24.9186053 C5.79271575,24.7983574 5.73027929,24.6503598 5.73027929,24.4746128 L5.73027929,24.1138688 C5.05504057,24.816857 4.26417878,25.1683512 3.35769392,25.1683512 Z M3.53806591,23.9889959 C3.9635588,23.9889959 4.36361462,23.894185 4.73823336,23.7045631 C5.1128521,23.5149413 5.44353408,23.262883 5.73027929,22.9483883 L5.73027929,20.0346869 C5.44353408,19.7201922 5.1128521,19.4681339 4.73823336,19.2785121 C4.36361462,19.0888902 3.9635588,18.9940793 3.53806591,18.9940793 C2.85357734,18.9940793 2.30321153,19.2114507 1.88696848,19.6461934 C1.47072544,20.0809361 1.26260391,20.6960509 1.26260391,21.4915376 C1.26260391,22.2870243 1.47072544,22.902139 1.88696848,23.3368818 C2.30321153,23.7716245 2.85357734,23.9889959 3.53806591,23.9889959 Z" id="Shape"></path>
                <path d="M12.3485437,25.1683512 C11.2200626,25.1683512 10.3390148,24.846919 9.70540039,24.2040548 C9.07178598,23.5611905 8.75497877,22.6570181 8.75497877,21.4915376 C8.75497877,20.8347986 8.87522676,20.2289337 9.11572274,19.6739429 C9.35621873,19.1189522 9.72621255,18.6703347 10.2257042,18.3280904 C10.7251959,17.9858461 11.3403106,17.814724 12.0710484,17.814724 C12.7555369,17.814724 13.3475271,17.9742838 13.8470187,18.2934035 C14.3465104,18.6125232 14.725754,19.0380161 14.9847497,19.5698822 C15.2437454,20.1017483 15.3732432,20.6821761 15.3732432,21.3111656 C15.3732432,21.4869127 15.3154317,21.6349102 15.1998086,21.7551582 C15.0841856,21.8754062 14.9292506,21.9355302 14.7350039,21.9355302 L10.0314574,21.9355302 C10.1054562,22.5830194 10.3459522,23.0871359 10.7529454,23.4478799 C11.1599386,23.8086239 11.7288041,23.9889959 12.4595419,23.9889959 C12.8480354,23.9889959 13.1879672,23.9519965 13.4793374,23.8779977 C13.7707075,23.803999 14.0551402,23.6976257 14.3326356,23.5588781 C14.4066344,23.5218787 14.489883,23.503379 14.5823814,23.503379 C14.730379,23.503379 14.8598768,23.5542531 14.9708749,23.6560014 C15.0818731,23.7577497 15.1373722,23.8872476 15.1373722,24.0444949 C15.1373722,24.2479915 15.0171242,24.4191137 14.7766282,24.5578614 C14.4158842,24.761358 14.0597652,24.9139804 13.708271,25.0157287 C13.3567769,25.117477 12.9035345,25.1683512 12.3485437,25.1683512 Z M14.1245141,20.9087973 C14.0967645,20.4555549 13.978829,20.0763112 13.7707075,19.7710663 C13.562586,19.4658214 13.3059028,19.2415127 13.0006579,19.0981401 C12.695413,18.9547675 12.3855431,18.8830812 12.0710484,18.8830812 C11.7565536,18.8830812 11.4466838,18.9547675 11.1414389,19.0981401 C10.836194,19.2415127 10.5818233,19.4658214 10.3783267,19.7710663 C10.1748301,20.0763112 10.059207,20.4555549 10.0314574,20.9087973 L14.1245141,20.9087973 Z" id="Shape"></path>
                <path d="M19.3275522,25.1683512 C18.4025676,25.1683512 17.5608317,24.9602297 16.8023444,24.5439866 C16.645097,24.4329885 16.5664733,24.280366 16.5664733,24.0861193 C16.5664733,23.9381217 16.6173474,23.8086239 16.7190957,23.6976257 C16.820844,23.5866276 16.9503419,23.5311285 17.1075893,23.5311285 C17.1908379,23.5311285 17.2740865,23.5496282 17.3573351,23.5866276 C17.6533301,23.7161254 17.9493252,23.8178737 18.2453203,23.8918725 C18.5413153,23.9658713 18.8743098,24.0028706 19.2443036,24.0028706 C20.2710364,24.0028706 20.7844028,23.6745011 20.7844028,23.0177621 C20.7844028,22.8050156 20.6664673,22.6431434 20.4305963,22.5321452 C20.1947252,22.4211471 19.8085441,22.2962741 19.2720531,22.1575265 C18.7263122,22.0280286 18.2753823,21.8939059 17.9192632,21.7551582 C17.5631442,21.6164105 17.2578992,21.4059765 17.0035285,21.1238562 C16.7491577,20.8417359 16.6219724,20.4694297 16.6219724,20.0069374 C16.6219724,19.3594482 16.855531,18.832207 17.3226482,18.4252138 C17.7897654,18.0182206 18.4580667,17.814724 19.3275522,17.814724 C20.0397903,17.814724 20.7104041,17.9303471 21.3393936,18.1615932 C21.4688914,18.1985926 21.5683273,18.2679664 21.6377011,18.3697147 C21.7070749,18.471463 21.7417619,18.5778363 21.7417619,18.6888344 C21.7417619,18.8368319 21.6885752,18.9663298 21.582202,19.0773279 C21.4758288,19.1883261 21.3440185,19.2438251 21.1867711,19.2438251 C21.1405219,19.2438251 21.0803979,19.2345753 21.0063991,19.2160756 C20.4699081,19.0495784 19.9426669,18.9663298 19.4246756,18.9663298 C18.9251839,18.9663298 18.5343779,19.0565158 18.2522576,19.2368877 C17.9701374,19.4172597 17.8290772,19.6508183 17.8290772,19.9375635 C17.8290772,20.2150589 17.958575,20.4185555 18.2175707,20.5480533 C18.4765664,20.6775512 18.8789347,20.8024241 19.4246756,20.9226721 C19.9704164,21.0614198 20.414409,21.197855 20.7566533,21.3319778 C21.0988976,21.4661005 21.3925802,21.6765345 21.6377011,21.9632797 C21.882822,22.2500249 22.0053825,22.6338935 22.0053825,23.1148855 C22.0053825,23.7068756 21.7718239,24.1971174 21.3047067,24.5856109 C20.8375895,24.9741044 20.178538,25.1683512 19.3275522,25.1683512 Z" id="Path"></path>
                <polygon id="Path" points="29.3312601 24.4191137 29.4283835 24.5578614 30.6771126 24.5578614 30.5661145 25.0296035 26.3481849 25.0296035 26.4591831 24.5578614 27.7079122 24.5578614 27.8882842 24.4191137 30.177621 15.2340171 30.0804976 15.0952694 28.8317684 15.0952694 28.9427666 14.6235273 33.1606961 14.6235273 33.049698 15.0952694 31.8009688 15.0952694 31.6205969 15.2340171"></polygon>
                <path d="M37.4618743,25.0296035 L36.4073919,25.0296035 L37.9197416,20.45093 C37.9844906,20.2566832 38.0492395,20.0531866 38.1139884,19.8404402 C38.1787373,19.6276937 38.2111118,19.4519467 38.2111118,19.313199 C38.2111118,19.192951 38.1833622,19.0888902 38.1278632,19.0010167 C38.0723641,18.9131432 37.9752407,18.8692064 37.836493,18.8692064 C37.5589977,18.8692064 37.2491278,19.0542033 36.9068836,19.4241971 C36.5646393,19.7941909 36.222395,20.270558 35.8801507,20.8532982 C35.5379064,21.4360385 35.2118494,22.0974025 34.9019795,22.8373901 C34.5921097,23.5773777 34.3308016,24.3081155 34.1180551,25.0296035 L33.0635728,25.0296035 L34.784044,19.0357036 L34.6314216,18.8969559 C34.5759225,18.9432052 34.4325499,19.0958276 34.2013037,19.3548233 C33.9700576,19.613819 33.6971872,19.969938 33.3826924,20.4231804 L32.8277017,20.4231804 C33.1514463,19.9236888 33.5098778,19.4496342 33.9029962,19.0010167 C34.2961147,18.5523992 34.5990471,18.2494667 34.8117936,18.0922194 L35.6442796,18.0922194 C35.7922772,18.1847178 35.8755258,18.3604649 35.8940255,18.6194606 C35.9125252,18.8784562 35.7922772,19.3455734 35.5332815,20.0208122 L34.8672926,21.769033 L35.0615394,21.769033 C35.2002871,21.4452884 35.3783466,21.0637322 35.595718,20.6243646 C35.8130893,20.1849969 36.0651476,19.7687539 36.3518928,19.3756354 C36.638638,18.982517 36.9600702,18.6472101 37.3161892,18.3697147 C37.6723083,18.0922194 38.0492395,17.9534717 38.4469828,17.9534717 C38.7892271,17.9534717 39.0204733,18.0482826 39.1407212,18.2379044 C39.2609692,18.4275263 39.3210932,18.6472101 39.3210932,18.8969559 C39.3210932,19.1559516 39.2355322,19.5051333 39.06441,19.9445009 C38.8932879,20.3838686 38.6504794,20.9920459 38.3359847,21.769033 L38.5302314,21.769033 C38.6874788,21.4360385 38.884038,21.047545 39.1199091,20.6035524 C39.3557802,20.1595598 39.6263381,19.7433168 39.931583,19.3548233 C40.2368279,18.9663298 40.5744473,18.6356478 40.9444411,18.3627773 C41.3144349,18.0899069 41.7121783,17.9534717 42.1376712,17.9534717 C42.4799155,17.9534717 42.7227239,18.0482826 42.8660965,18.2379044 C43.0094691,18.4275263 43.0811554,18.6472101 43.0811554,18.8969559 C43.0811554,19.1004525 43.0302813,19.3571357 42.928533,19.6670056 C42.8267847,19.9768754 42.7065367,20.330682 42.567789,20.7284253 L41.3884337,24.0861193 L41.5410562,24.2248669 C41.6613041,24.160118 41.8624883,23.979746 42.1446086,23.683751 C42.4267289,23.3877559 42.6972868,23.1056356 42.9562825,22.8373901 L43.5112732,22.8373901 C43.3632757,23.0038873 43.194466,23.1935092 43.0048442,23.4062556 C42.8152224,23.6190021 42.6209756,23.8271236 42.4221039,24.0306202 C42.2232323,24.2341168 42.026673,24.4260511 41.8324263,24.6064231 C41.6381795,24.786795 41.4670574,24.9278552 41.3190599,25.0296035 L40.4865738,25.0296035 C40.3940753,24.9926041 40.3177641,24.9162929 40.2576401,24.8006698 C40.1975161,24.6850467 40.1674541,24.5671112 40.1674541,24.4468632 C40.1674541,24.2988657 40.1928912,24.130056 40.2437653,23.9404342 C40.2946395,23.7508124 40.3663258,23.5265036 40.4588242,23.2675079 L41.430058,20.45093 C41.4948069,20.2566832 41.5595558,20.0531866 41.6243048,19.8404402 C41.6890537,19.6276937 41.7214281,19.4611965 41.7214281,19.3409485 C41.7214281,19.2022008 41.6936786,19.0888902 41.6381795,19.0010167 C41.5826805,18.9131432 41.4855571,18.8692064 41.3468094,18.8692064 C41.069314,18.8692064 40.7594442,19.0542033 40.4171999,19.4241971 C40.0749556,19.7941909 39.7280864,20.270558 39.3765923,20.8532982 C39.0250982,21.4360385 38.6828539,22.0974025 38.3498595,22.8373901 C38.016865,23.5773777 37.72087,24.3081155 37.4618743,25.0296035 Z" id="Path"></path>
                <path d="M49.2276778,25.0296035 L48.1731954,25.0296035 L49.6855451,20.45093 C49.750294,20.2566832 49.815043,20.0531866 49.8797919,19.8404402 C49.9445408,19.6276937 49.9769153,19.4519467 49.9769153,19.313199 C49.9769153,19.192951 49.9491657,19.0888902 49.8936666,19.0010167 C49.8381676,18.9131432 49.7410442,18.8692064 49.6022965,18.8692064 C49.3248011,18.8692064 49.0149313,19.0542033 48.672687,19.4241971 C48.3304428,19.7941909 47.9881985,20.270558 47.6459542,20.8532982 C47.3037099,21.4360385 46.9776529,22.0974025 46.667783,22.8373901 C46.3579132,23.5773777 46.0966051,24.3081155 45.8838586,25.0296035 L44.8293762,25.0296035 L46.5498475,19.0357036 L46.397225,18.8969559 C46.341726,18.9432052 46.1983534,19.0958276 45.9671072,19.3548233 C45.7358611,19.613819 45.4629907,19.969938 45.1484959,20.4231804 L44.5935052,20.4231804 C44.9172498,19.9236888 45.2756813,19.4496342 45.6687997,19.0010167 C46.0619181,18.5523992 46.3648506,18.2494667 46.577597,18.0922194 L47.4100831,18.0922194 C47.5580807,18.1847178 47.6413293,18.3604649 47.659829,18.6194606 C47.6783286,18.8784562 47.5580807,19.3455734 47.299085,20.0208122 L46.6330961,21.769033 L46.8273429,21.769033 C46.9660905,21.4452884 47.1441501,21.0637322 47.3615214,20.6243646 C47.5788928,20.1849969 47.8309511,19.7687539 48.1176963,19.3756354 C48.4044415,18.982517 48.7258737,18.6472101 49.0819927,18.3697147 C49.4381118,18.0922194 49.815043,17.9534717 50.2127863,17.9534717 C50.5550306,17.9534717 50.7862767,18.0482826 50.9065247,18.2379044 C51.0267727,18.4275263 51.0868967,18.6472101 51.0868967,18.8969559 C51.0868967,19.1559516 51.0013356,19.5051333 50.8302135,19.9445009 C50.6590914,20.3838686 50.4162829,20.9920459 50.1017882,21.769033 L50.2960349,21.769033 C50.4532823,21.4360385 50.6498415,21.047545 50.8857126,20.6035524 C51.1215836,20.1595598 51.3921416,19.7433168 51.6973865,19.3548233 C52.0026314,18.9663298 52.3402508,18.6356478 52.7102446,18.3627773 C53.0802384,18.0899069 53.4779818,17.9534717 53.9034747,17.9534717 C54.245719,17.9534717 54.4885274,18.0482826 54.6319,18.2379044 C54.7752726,18.4275263 54.8469589,18.6472101 54.8469589,18.8969559 C54.8469589,19.1004525 54.7960848,19.3571357 54.6943365,19.6670056 C54.5925882,19.9768754 54.4723402,20.330682 54.3335925,20.7284253 L53.1542372,24.0861193 L53.3068596,24.2248669 C53.4271076,24.160118 53.6282918,23.979746 53.9104121,23.683751 C54.1925323,23.3877559 54.4630903,23.1056356 54.722086,22.8373901 L55.2770767,22.8373901 C55.1290792,23.0038873 54.9602695,23.1935092 54.7706477,23.4062556 C54.5810259,23.6190021 54.3867791,23.8271236 54.1879074,24.0306202 C53.9890357,24.2341168 53.7924765,24.4260511 53.5982298,24.6064231 C53.403983,24.786795 53.2328609,24.9278552 53.0848633,25.0296035 L52.2523773,25.0296035 C52.1598788,24.9926041 52.0835676,24.9162929 52.0234436,24.8006698 C51.9633196,24.6850467 51.9332576,24.5671112 51.9332576,24.4468632 C51.9332576,24.2988657 51.9586947,24.130056 52.0095688,23.9404342 C52.060443,23.7508124 52.1321293,23.5265036 52.2246277,23.2675079 L53.1958615,20.45093 C53.2606104,20.2566832 53.3253593,20.0531866 53.3901082,19.8404402 C53.4548572,19.6276937 53.4872316,19.4611965 53.4872316,19.3409485 C53.4872316,19.2022008 53.4594821,19.0888902 53.403983,19.0010167 C53.3484839,18.9131432 53.2513606,18.8692064 53.1126129,18.8692064 C52.8351175,18.8692064 52.5252477,19.0542033 52.1830034,19.4241971 C51.8407591,19.7941909 51.4938899,20.270558 51.1423958,20.8532982 C50.7909017,21.4360385 50.4486574,22.0974025 50.1156629,22.8373901 C49.7826685,23.5773777 49.4866734,24.3081155 49.2276778,25.0296035 Z" id="Path"></path>
                <path d="M60.7853597,23.4201304 L61.4097243,21.8384068 L61.2154775,21.8384068 C60.6327373,22.8743895 60.0314973,23.6883759 59.4117577,24.280366 C58.792018,24.8723561 58.1537787,25.1683512 57.4970397,25.1683512 C57.0992963,25.1683512 56.7686143,25.0666029 56.5049937,24.8631063 C56.2413731,24.6596097 56.1095628,24.3081155 56.1095628,23.8086239 C56.1095628,23.262883 56.2575604,22.6500807 56.5535554,21.9702171 C56.8495505,21.2903534 57.2334191,20.6544266 57.7051612,20.0624365 C58.1769033,19.4704463 58.7087694,18.9709547 59.3007595,18.5639615 C59.8927496,18.1569683 60.4847397,17.9534717 61.0767299,17.9534717 C61.3819748,17.9534717 61.608596,17.995096 61.7565935,18.0783446 C61.904591,18.1615932 61.9970895,18.2217172 62.0340889,18.2587166 L62.1728366,18.2587166 L62.2699599,17.9534717 L63.46319,17.9534717 L61.6872197,24.0861193 L61.8398421,24.2248669 C61.9230907,24.1416183 62.0803381,23.9658713 62.3115842,23.6976257 C62.5428304,23.4293802 62.7787014,23.142635 63.0191974,22.8373901 L63.5741881,22.8373901 C63.4261906,23.022387 63.2643183,23.2212587 63.0885713,23.4340051 C62.9128242,23.6467516 62.7393896,23.8548731 62.5682674,24.0583697 C62.3971453,24.2618663 62.2306481,24.4491757 62.0687758,24.6202978 C61.9069035,24.79142 61.7565935,24.9278552 61.6178458,25.0296035 L60.7853597,25.0296035 C60.5633634,24.9093555 60.4731774,24.6989215 60.5148017,24.3983015 C60.5564261,24.0976816 60.646612,23.7716245 60.7853597,23.4201304 Z M57.4970397,23.6143771 C57.4970397,23.8733728 57.5548512,24.0537448 57.6704743,24.1554931 C57.7860973,24.2572414 57.9317824,24.3081155 58.1075295,24.3081155 C58.431274,24.3081155 58.8128302,24.1138688 59.2521978,23.7253753 C59.6915655,23.3368818 60.1054961,22.872077 60.4939896,22.3309611 C60.8824831,21.7898451 61.2131651,21.227917 61.4860355,20.6451767 C61.758906,20.0624365 61.8953412,19.5814445 61.8953412,19.2022008 C61.8953412,18.9154556 61.8097801,18.7096466 61.638658,18.5847736 C61.4675358,18.4599007 61.2709766,18.3974643 61.0489803,18.3974643 C60.6604868,18.3974643 60.2558061,18.5963359 59.8349381,18.9940793 C59.4140701,19.3918227 59.032514,19.8658772 58.6902697,20.416243 C58.3480254,20.9666089 58.0635927,21.5377868 57.8369715,22.1297769 C57.6103503,22.721767 57.4970397,23.2166338 57.4970397,23.6143771 Z" id="Shape"></path>
                <path d="M68.194486,16.5659949 L67.7504934,18.0922194 L69.1657198,18.0922194 L69.0130973,18.6472101 L67.5839962,18.6472101 L66.0022726,24.0861193 L66.154895,24.2248669 C66.2103941,24.1878676 66.2982676,24.1115563 66.4185156,23.9959333 C66.5387636,23.8803102 66.6728864,23.7484999 66.8208839,23.6005024 C66.9688814,23.4525048 67.1215039,23.2975699 67.2787513,23.1356976 C67.4359986,22.9738253 67.5747463,22.8281403 67.6949943,22.6986424 L68.249985,22.6986424 C68.1019875,22.8743895 67.9262405,23.0732612 67.7227439,23.2952575 C67.5192473,23.5172538 67.3111257,23.7369376 67.0983793,23.954309 C66.8856328,24.1716803 66.6751989,24.3774894 66.4670773,24.5717361 C66.2589558,24.7659829 66.0808963,24.9186053 65.9328988,25.0296035 L65.1004127,25.0296035 C64.8784164,24.9093555 64.7697307,24.7058589 64.7743556,24.4191137 C64.7789805,24.1323685 64.841417,23.7901242 64.961665,23.3923808 L66.4601399,18.7027092 L65.2946594,18.7027092 L65.142037,18.5639615 L68.0557383,16.5659949 L68.194486,16.5659949 Z" id="Path"></path>
                <path d="M73.9247653,17.9534717 C74.4612563,17.9534717 74.8543747,18.0806571 75.1041206,18.3350278 C75.3538664,18.5893986 75.4787393,18.8877061 75.4787393,19.2299504 C75.4787393,19.5351953 75.4024281,19.8080657 75.2498056,20.0485617 C75.0971832,20.2890577 74.8451249,20.5087415 74.4936308,20.7076132 C74.1421366,20.9064849 73.6750194,21.0914818 73.0922792,21.2626039 C72.5095389,21.4337261 71.7926759,21.5979108 70.9416901,21.7551582 C70.8954409,21.9771545 70.8584415,22.2014632 70.8306919,22.4280844 C70.8029424,22.6547057 70.7890676,22.8836393 70.7890676,23.1148855 C70.7890676,23.5773777 70.8815661,23.924247 71.066563,24.1554931 C71.2515599,24.3867392 71.5290553,24.5023623 71.8990491,24.5023623 C72.1580448,24.5023623 72.4101031,24.4422383 72.655224,24.3219903 C72.9003449,24.2017423 73.1269661,24.0537448 73.3350876,23.8779977 C73.5432091,23.7022507 73.7351434,23.5195662 73.9108905,23.3299444 C74.0866376,23.1403225 74.2300102,22.9761378 74.3410083,22.8373901 L74.895999,22.8373901 C74.7572514,23.0131372 74.5815043,23.2351335 74.3687578,23.503379 C74.1560114,23.7716245 73.9062656,24.0283077 73.6195204,24.2734286 C73.3327752,24.5185495 73.0044056,24.7289835 72.6344118,24.9047306 C72.264418,25.0804776 71.8574248,25.1683512 71.4134322,25.1683512 C70.8121923,25.1683512 70.3265754,25.0180412 69.9565815,24.7174212 C69.5865877,24.4168012 69.4015908,23.8918725 69.4015908,23.142635 C69.4015908,22.5876443 69.5287762,22.0025916 69.7831469,21.3874768 C70.0375177,20.7723621 70.3728246,20.2127464 70.7890676,19.7086299 C71.2053107,19.2045133 71.6863027,18.7859578 72.2320435,18.4529633 C72.7777844,18.1199689 73.342025,17.9534717 73.9247653,17.9534717 Z M73.6195204,18.3697147 C73.3790244,18.3697147 73.1339035,18.446026 72.8841576,18.5986484 C72.6344118,18.7512709 72.3985408,18.9547675 72.1765445,19.2091382 C71.9545482,19.463509 71.7464266,19.7687539 71.5521799,20.1248729 C71.3579331,20.480992 71.2006858,20.8579232 71.0804378,21.2556665 L71.2053107,21.3666647 C71.8897993,21.1724179 72.4378526,20.9804836 72.8494707,20.7908618 C73.2610889,20.60124 73.5755836,20.4139306 73.792955,20.2289337 C74.0103263,20.0439368 74.1513865,19.8566274 74.2161354,19.6670056 C74.2808843,19.4773837 74.3132588,19.2854494 74.3132588,19.0912027 C74.3132588,18.8692064 74.2554472,18.6934593 74.1398242,18.5639615 C74.0242011,18.4344636 73.8507665,18.3697147 73.6195204,18.3697147 Z" id="Shape"></path>
                <path d="M81.5142635,18.0089708 L82.2912505,17.9534717 L82.4022487,18.0922194 L82.0415047,19.3270737 L81.2090186,19.3270737 C80.8575245,19.3270737 80.5083428,19.4866336 80.1614736,19.8057532 C79.8146044,20.1248729 79.48161,20.5457409 79.1624903,21.0683572 C78.8433706,21.5909734 78.5358132,22.1968383 78.2398182,22.8859518 C77.9438231,23.5750653 77.6755776,24.2896159 77.4350816,25.0296035 L76.3805992,25.0296035 L78.0594462,19.0357036 L77.9068238,18.8969559 C77.8513247,18.9432052 77.7079521,19.0958276 77.4767059,19.3548233 C77.2454598,19.613819 76.9725894,19.969938 76.6580946,20.4231804 L76.1031039,20.4231804 C76.4268485,19.9236888 76.78528,19.4496342 77.1783984,19.0010167 C77.5715169,18.5523992 77.8744493,18.2494667 78.0871957,18.0922194 L78.9196818,18.0922194 C79.0676794,18.1847178 79.1370532,18.3604649 79.1278034,18.6194606 C79.1185535,18.8784562 78.9983055,19.3501984 78.7670594,20.0346869 L78.1843191,21.769033 L78.4340649,21.769033 C78.8873074,20.6683013 79.3821741,19.7756912 79.9186652,19.0912027 C80.4551562,18.4067141 80.9870223,18.0459701 81.5142635,18.0089708 Z" id="Path"></path>
                <path d="M84.9135817,16.1497518 L84.9135817,14.6235273 L86.4398062,14.6235273 L86.4398062,16.1497518 L84.9135817,16.1497518 Z M83.4289815,24.1971174 L83.581604,24.3358651 C83.6463529,24.2988657 83.7434763,24.2248669 83.8729741,24.1138688 C84.0024719,24.0028706 84.1435321,23.8756853 84.2961545,23.7323127 C84.448777,23.5889401 84.6037119,23.4386301 84.7609593,23.2813827 C84.9182066,23.1241353 85.0569543,22.9761378 85.1772023,22.8373901 L85.7321931,22.8373901 C85.5841955,23.0038873 85.4130734,23.1911967 85.2188266,23.3993182 C85.0245799,23.6074397 84.8233957,23.8132488 84.6152742,24.0167454 C84.4071527,24.220242 84.2013436,24.4121763 83.997847,24.5925483 C83.7943504,24.7729203 83.6139784,24.9186053 83.4567311,25.0296035 L82.624245,25.0296035 C82.4392481,24.9093555 82.3374998,24.7081714 82.3190001,24.4260511 C82.3005004,24.1439308 82.3652493,23.8086239 82.5132468,23.4201304 L84.1504695,19.0357036 L83.997847,18.8969559 C83.9423479,18.9432052 83.8082252,19.0796404 83.5954787,19.3062616 C83.3827323,19.5328828 83.0497379,19.9144389 82.5964954,20.45093 L82.0415047,20.45093 C82.4947471,19.8404402 82.9133026,19.3363236 83.2971712,18.9385802 C83.6810398,18.5408369 84.0024719,18.2587166 84.2614676,18.0922194 L85.0939537,18.0922194 C85.1772023,18.1292187 85.2581385,18.1939677 85.3367622,18.2864661 C85.4153858,18.3789646 85.4546977,18.4992126 85.4546977,18.6472101 C85.4546977,18.7674581 85.4385105,18.8992684 85.406136,19.042641 C85.3737615,19.1860136 85.31595,19.3594482 85.2327014,19.5629448 L83.4289815,24.1971174 Z" id="Shape"></path>
                <path d="M91.1711022,17.9534717 C91.7075932,17.9534717 92.1007117,18.0806571 92.3504575,18.3350278 C92.6002033,18.5893986 92.7250763,18.8877061 92.7250763,19.2299504 C92.7250763,19.5351953 92.648765,19.8080657 92.4961426,20.0485617 C92.3435201,20.2890577 92.0914618,20.5087415 91.7399677,20.7076132 C91.3884736,20.9064849 90.9213564,21.0914818 90.3386161,21.2626039 C89.7558758,21.4337261 89.0390128,21.5979108 88.188027,21.7551582 C88.1417778,21.9771545 88.1047784,22.2014632 88.0770289,22.4280844 C88.0492793,22.6547057 88.0354046,22.8836393 88.0354046,23.1148855 C88.0354046,23.5773777 88.127903,23.924247 88.3128999,24.1554931 C88.4978969,24.3867392 88.7753922,24.5023623 89.145386,24.5023623 C89.4043817,24.5023623 89.65644,24.4422383 89.9015609,24.3219903 C90.1466818,24.2017423 90.373303,24.0537448 90.5814246,23.8779977 C90.7895461,23.7022507 90.9814804,23.5195662 91.1572274,23.3299444 C91.3329745,23.1403225 91.4763471,22.9761378 91.5873453,22.8373901 L92.142336,22.8373901 C92.0035883,23.0131372 91.8278412,23.2351335 91.6150948,23.503379 C91.4023483,23.7716245 91.1526025,24.0283077 90.8658573,24.2734286 C90.5791121,24.5185495 90.2507426,24.7289835 89.8807488,24.9047306 C89.5107549,25.0804776 89.1037617,25.1683512 88.6597692,25.1683512 C88.0585292,25.1683512 87.5729123,25.0180412 87.2029185,24.7174212 C86.8329247,24.4168012 86.6479278,23.8918725 86.6479278,23.142635 C86.6479278,22.5876443 86.7751131,22.0025916 87.0294839,21.3874768 C87.2838546,20.7723621 87.6191615,20.2127464 88.0354046,19.7086299 C88.4516476,19.2045133 88.9326396,18.7859578 89.4783805,18.4529633 C90.0241214,18.1199689 90.5883619,17.9534717 91.1711022,17.9534717 Z M90.8658573,18.3697147 C90.6253613,18.3697147 90.3802404,18.446026 90.1304946,18.5986484 C89.8807488,18.7512709 89.6448777,18.9547675 89.4228814,19.2091382 C89.2008851,19.463509 88.9927636,19.7687539 88.7985168,20.1248729 C88.6042701,20.480992 88.4470227,20.8579232 88.3267747,21.2556665 L88.4516476,21.3666647 C89.1361362,21.1724179 89.6841895,20.9804836 90.0958077,20.7908618 C90.5074258,20.60124 90.8219205,20.4139306 91.0392919,20.2289337 C91.2566633,20.0439368 91.3977234,19.8566274 91.4624723,19.6670056 C91.5272213,19.4773837 91.5595957,19.2854494 91.5595957,19.0912027 C91.5595957,18.8692064 91.5017842,18.6934593 91.3861611,18.5639615 C91.270538,18.4344636 91.0971034,18.3697147 90.8658573,18.3697147 Z" id="Shape"></path>
                <path d="M94.6675438,24.0861193 L94.8201663,24.2248669 C94.9404142,24.160118 95.1415984,23.979746 95.4237187,23.683751 C95.705839,23.3877559 95.9763969,23.1056356 96.2353926,22.8373901 L96.7903834,22.8373901 C96.6423858,23.0038873 96.4735761,23.1935092 96.2839543,23.4062556 C96.0943325,23.6190021 95.9000857,23.8271236 95.701214,24.0306202 C95.5023424,24.2341168 95.3057831,24.4260511 95.1115364,24.6064231 C94.9172896,24.786795 94.7461675,24.9278552 94.59817,25.0296035 L93.7656839,25.0296035 C93.6731854,24.9926041 93.5968742,24.9162929 93.5367502,24.8006698 C93.4766262,24.6850467 93.4465642,24.5671112 93.4465642,24.4468632 C93.4465642,24.2988657 93.4720013,24.130056 93.5228754,23.9404342 C93.5737496,23.7508124 93.636186,23.5218787 93.7101848,23.2536332 L95.9995216,15.2340171 L95.8468991,15.0952694 L94.59817,15.0952694 L94.7369176,14.6235273 L97.4979965,14.6235273 L94.6675438,24.0861193 Z" id="Path"></path>
                <path d="M99.1907183,24.0861193 L99.3433407,24.2248669 C99.4635887,24.160118 99.6647728,23.979746 99.9468931,23.683751 C100.229013,23.3877559 100.499571,23.1056356 100.758567,22.8373901 L101.313558,22.8373901 C101.16556,23.0038873 100.996751,23.1935092 100.807129,23.4062556 C100.617507,23.6190021 100.42326,23.8271236 100.224388,24.0306202 C100.025517,24.2341168 99.8289576,24.4260511 99.6347108,24.6064231 C99.4404641,24.786795 99.2693419,24.9278552 99.1213444,25.0296035 L98.2888583,25.0296035 C98.1963599,24.9926041 98.1200486,24.9162929 98.0599246,24.8006698 C97.9998006,24.6850467 97.9697387,24.5671112 97.9697387,24.4468632 C97.9697387,24.2988657 97.9951757,24.130056 98.0460499,23.9404342 C98.096924,23.7508124 98.1593605,23.5218787 98.2333592,23.2536332 L100.522696,15.2340171 L100.370074,15.0952694 L99.1213444,15.0952694 L99.2600921,14.6235273 L102.021171,14.6235273 L99.1907183,24.0861193 Z" id="Path"></path>
                <path d="M106.807966,17.9534717 C107.344457,17.9534717 107.737576,18.0806571 107.987321,18.3350278 C108.237067,18.5893986 108.36194,18.8877061 108.36194,19.2299504 C108.36194,19.5351953 108.285629,19.8080657 108.133006,20.0485617 C107.980384,20.2890577 107.728326,20.5087415 107.376832,20.7076132 C107.025337,20.9064849 106.55822,21.0914818 105.97548,21.2626039 C105.39274,21.4337261 104.675877,21.5979108 103.824891,21.7551582 C103.778642,21.9771545 103.741642,22.2014632 103.713893,22.4280844 C103.686143,22.6547057 103.672268,22.8836393 103.672268,23.1148855 C103.672268,23.5773777 103.764767,23.924247 103.949764,24.1554931 C104.134761,24.3867392 104.412256,24.5023623 104.78225,24.5023623 C105.041246,24.5023623 105.293304,24.4422383 105.538425,24.3219903 C105.783546,24.2017423 106.010167,24.0537448 106.218288,23.8779977 C106.42641,23.7022507 106.618344,23.5195662 106.794091,23.3299444 C106.969838,23.1403225 107.113211,22.9761378 107.224209,22.8373901 L107.7792,22.8373901 C107.640452,23.0131372 107.464705,23.2351335 107.251959,23.503379 C107.039212,23.7716245 106.789466,24.0283077 106.502721,24.2734286 C106.215976,24.5185495 105.887606,24.7289835 105.517613,24.9047306 C105.147619,25.0804776 104.740626,25.1683512 104.296633,25.1683512 C103.695393,25.1683512 103.209776,25.0180412 102.839782,24.7174212 C102.469788,24.4168012 102.284792,23.8918725 102.284792,23.142635 C102.284792,22.5876443 102.411977,22.0025916 102.666348,21.3874768 C102.920718,20.7723621 103.256025,20.2127464 103.672268,19.7086299 C104.088511,19.2045133 104.569503,18.7859578 105.115244,18.4529633 C105.660985,18.1199689 106.225226,17.9534717 106.807966,17.9534717 Z M106.502721,18.3697147 C106.262225,18.3697147 106.017104,18.446026 105.767358,18.5986484 C105.517613,18.7512709 105.281742,18.9547675 105.059745,19.2091382 C104.837749,19.463509 104.629627,19.7687539 104.435381,20.1248729 C104.241134,20.480992 104.083887,20.8579232 103.963639,21.2556665 L104.088511,21.3666647 C104.773,21.1724179 105.321053,20.9804836 105.732671,20.7908618 C106.14429,20.60124 106.458784,20.4139306 106.676156,20.2289337 C106.893527,20.0439368 107.034587,19.8566274 107.099336,19.6670056 C107.164085,19.4773837 107.19646,19.2854494 107.19646,19.0912027 C107.19646,18.8692064 107.138648,18.6934593 107.023025,18.5639615 C106.907402,18.4344636 106.733967,18.3697147 106.502721,18.3697147 Z" id="Shape"></path>
                <path d="M113.42623,25.0296035 C113.333732,24.9926041 113.257421,24.9162929 113.197297,24.8006698 C113.137173,24.6850467 113.107111,24.5671112 113.107111,24.4468632 C113.107111,24.2988657 113.132548,24.130056 113.183422,23.9404342 C113.234296,23.7508124 113.305982,23.5265036 113.398481,23.2675079 L114.369715,20.45093 C114.434464,20.2566832 114.499213,20.0531866 114.563961,19.8404402 C114.62871,19.6276937 114.661085,19.4611965 114.661085,19.3409485 C114.661085,19.2022008 114.633335,19.0888902 114.577836,19.0010167 C114.522337,18.9131432 114.425214,18.8692064 114.286466,18.8692064 C114.02747,18.8692064 113.710663,19.0542033 113.336044,19.4241971 C112.961426,19.7941909 112.584495,20.270558 112.205251,20.8532982 C111.826007,21.4360385 111.462951,22.0974025 111.116082,22.8373901 C110.769212,23.5773777 110.489405,24.3081155 110.276658,25.0296035 L109.222176,25.0296035 L110.942647,19.0357036 L110.790025,18.8969559 C110.734525,18.9432052 110.591153,19.0958276 110.359907,19.3548233 C110.128661,19.613819 109.85579,19.969938 109.541295,20.4231804 L108.986305,20.4231804 C109.310049,19.9236888 109.668481,19.4496342 110.061599,19.0010167 C110.454718,18.5523992 110.75765,18.2494667 110.970397,18.0922194 L111.802883,18.0922194 C111.95088,18.1847178 112.041066,18.3581524 112.073441,18.6125232 C112.105815,18.8668939 111.992504,19.3363236 111.733509,20.0208122 L111.081395,21.769033 L111.275641,21.769033 C111.414389,21.4452884 111.606323,21.0637322 111.851444,20.6243646 C112.096565,20.1849969 112.380998,19.7687539 112.704743,19.3756354 C113.028487,18.982517 113.391544,18.6472101 113.793912,18.3697147 C114.19628,18.0922194 114.614836,17.9534717 115.049578,17.9534717 C115.364073,17.9534717 115.604569,18.0482826 115.771066,18.2379044 C115.937564,18.4275263 116.020812,18.6472101 116.020812,18.8969559 C116.020812,19.1004525 115.969938,19.3571357 115.86819,19.6670056 C115.766441,19.9768754 115.646193,20.330682 115.507446,20.7284253 L114.32809,24.0861193 L114.480713,24.2248669 C114.600961,24.160118 114.802145,23.979746 115.084265,23.683751 C115.366386,23.3877559 115.636944,23.1056356 115.895939,22.8373901 L116.45093,22.8373901 C116.302932,23.0038873 116.134123,23.1935092 115.944501,23.4062556 C115.754879,23.6190021 115.560632,23.8271236 115.361761,24.0306202 C115.162889,24.2341168 114.96633,24.4260511 114.772083,24.6064231 C114.577836,24.786795 114.406714,24.9278552 114.258717,25.0296035 L113.42623,25.0296035 Z" id="Path"></path>
                <path d="M1.02673285,31.3421446 C0.832486095,31.3421446 0.665988876,31.2727708 0.527241194,31.1340231 C0.388493511,30.9952754 0.31911967,30.8287782 0.31911967,30.6345314 L0.31911967,30.5790324 C0.31911967,30.3847856 0.388493511,30.2182884 0.527241194,30.0795407 C0.665988876,29.940793 0.832486095,29.8714192 1.02673285,29.8714192 L1.10998146,29.8714192 C1.30422822,29.8714192 1.47072544,29.940793 1.60947312,30.0795407 C1.7482208,30.2182884 1.81759464,30.3847856 1.81759464,30.5790324 L1.81759464,30.6345314 C1.81759464,30.8287782 1.7482208,30.9952754 1.60947312,31.1340231 C1.47072544,31.2727708 1.30422822,31.3421446 1.10998146,31.3421446 L1.02673285,31.3421446 Z M1.05448239,39.9306262 C0.878735323,39.9306262 0.730737795,39.8705022 0.610489803,39.7502542 C0.490241812,39.6300062 0.430117816,39.4820087 0.430117816,39.3062616 L0.430117816,33.353986 C0.430117816,33.1782389 0.490241812,33.027929 0.610489803,32.903056 C0.730737795,32.7781831 0.878735323,32.7157467 1.05448239,32.7157467 C1.2394793,32.7157467 1.39210175,32.7758707 1.51234974,32.8961187 C1.63259773,33.0163666 1.69272173,33.1689891 1.69272173,33.353986 L1.69272173,39.3062616 C1.69272173,39.4820087 1.63028527,39.6300062 1.50541236,39.7502542 C1.38053944,39.8705022 1.23022945,39.9306262 1.05448239,39.9306262 Z" id="Shape"></path>
                <path d="M4.50929968,39.9306262 C4.33355262,39.9306262 4.18555509,39.8705022 4.0653071,39.7502542 C3.94505911,39.6300062 3.88493511,39.4820087 3.88493511,39.3062616 L3.88493511,33.353986 C3.88493511,33.1782389 3.94505911,33.027929 4.0653071,32.903056 C4.18555509,32.7781831 4.33355262,32.7157467 4.50929968,32.7157467 C4.68504675,32.7157467 4.83535674,32.7781831 4.96022965,32.903056 C5.08510257,33.027929 5.14753902,33.1782389 5.14753902,33.353986 L5.14753902,33.9228515 C5.4065347,33.5528577 5.71871698,33.2476128 6.08408588,33.0071168 C6.44945478,32.7666208 6.92350936,32.6463728 7.50624963,32.6463728 C8.02424097,32.6463728 8.46823356,32.7851205 8.83822738,33.0626159 C9.2082212,33.3401112 9.4718418,33.6777306 9.62908917,34.075474 C10.2025796,33.1227399 11.0535654,32.6463728 12.1820465,32.6463728 C12.7000379,32.6463728 13.1324682,32.7758707 13.4793374,33.0348663 C13.8262066,33.293862 14.0828898,33.6268564 14.249387,34.0338497 C14.4158842,34.4408429 14.4991328,34.8663357 14.4991328,35.3103283 L14.4991328,39.3062616 C14.4991328,39.4820087 14.4366964,39.6300062 14.3118235,39.7502542 C14.1869505,39.8705022 14.0366406,39.9306262 13.8608935,39.9306262 C13.6851464,39.9306262 13.5371489,39.8705022 13.4169009,39.7502542 C13.2966529,39.6300062 13.2365289,39.4820087 13.2365289,39.3062616 L13.2365289,35.5600742 C13.2365289,34.9588342 13.1301557,34.5171541 12.9174092,34.2350338 C12.7046628,33.9529135 12.3392939,33.8118534 11.8213026,33.8118534 C11.3495604,33.8118534 10.9587545,33.9344138 10.6488846,34.1795347 C10.3390148,34.4246556 10.0638319,34.7460878 9.82333592,35.1438311 L9.82333592,39.3062616 C9.82333592,39.4820087 9.76089947,39.6300062 9.63602655,39.7502542 C9.51115364,39.8705022 9.36084365,39.9306262 9.18509659,39.9306262 C9.00934952,39.9306262 8.86135199,39.8705022 8.741104,39.7502542 C8.62085601,39.6300062 8.56073201,39.4820087 8.56073201,39.3062616 L8.56073201,35.5600742 C8.56073201,34.9588342 8.45435879,34.5171541 8.24161234,34.2350338 C8.0288659,33.9529135 7.663497,33.8118534 7.14550565,33.8118534 C6.67376353,33.8118534 6.28295756,33.9344138 5.97308773,34.1795347 C5.66321791,34.4246556 5.38803501,34.7460878 5.14753902,35.1438311 L5.14753902,39.3062616 C5.14753902,39.4820087 5.08510257,39.6300062 4.96022965,39.7502542 C4.83535674,39.8705022 4.68504675,39.9306262 4.50929968,39.9306262 Z" id="Path"></path>
                <path d="M21.1035225,39.9306262 C20.9277755,39.9306262 20.7797779,39.8705022 20.6595299,39.7502542 C20.5392819,39.6300062 20.4791579,39.4820087 20.4791579,39.3062616 L20.4791579,31.0230249 C20.4791579,30.7732791 20.5670315,30.5582202 20.7427785,30.3778482 C20.9185256,30.1974762 21.1312721,30.1072902 21.3810179,30.1072902 L21.8388852,30.1072902 C22.0238821,30.1072902 22.1926918,30.1627893 22.3453143,30.2737875 C22.4979367,30.3847856 22.6112473,30.5235333 22.6852461,30.6900305 L25.8348185,38.5431493 L28.9843909,30.6900305 C29.0583896,30.5235333 29.1717003,30.3847856 29.3243227,30.2737875 C29.4769452,30.1627893 29.6457548,30.1072902 29.8307517,30.1072902 L30.2886191,30.1072902 C30.5383649,30.1072902 30.7511114,30.1974762 30.9268584,30.3778482 C31.1026055,30.5582202 31.190479,30.7732791 31.190479,31.0230249 L31.190479,39.3062616 C31.190479,39.4820087 31.130355,39.6300062 31.0101071,39.7502542 C30.8898591,39.8705022 30.7418615,39.9306262 30.5661145,39.9306262 C30.3903674,39.9306262 30.2400574,39.8705022 30.1151845,39.7502542 C29.9903116,39.6300062 29.9278751,39.4820087 29.9278751,39.3062616 L29.9278751,31.4253932 L26.7228037,39.3478859 C26.6488049,39.523633 26.5308694,39.6646931 26.3689971,39.7710663 C26.2071248,39.8774395 26.0290652,39.9306262 25.8348185,39.9306262 C25.6405717,39.9306262 25.4625122,39.8774395 25.3006399,39.7710663 C25.1387676,39.6646931 25.0208321,39.523633 24.9468333,39.3478859 L21.7417619,31.4253932 L21.7417619,39.3062616 C21.7417619,39.4820087 21.6793254,39.6300062 21.5544525,39.7502542 C21.4295796,39.8705022 21.2792696,39.9306262 21.1035225,39.9306262 Z" id="Path"></path>
                <path d="M36.0466479,40 C35.5379064,40 35.0962263,39.879752 34.7216076,39.639256 C34.3469888,39.39876 34.0602436,39.0703905 33.8613719,38.6541475 C33.6625002,38.2379044 33.5630644,37.7800371 33.5630644,37.2805454 L33.5630644,33.3401112 C33.5630644,33.1643642 33.6255009,33.0163666 33.7503738,32.8961187 C33.8752467,32.7758707 34.0255567,32.7157467 34.2013037,32.7157467 C34.3770508,32.7157467 34.5250483,32.7758707 34.6452963,32.8961187 C34.7655443,33.0163666 34.8256683,33.1643642 34.8256683,33.3401112 L34.8256683,37.1417977 C34.8256683,38.2702789 35.3344098,38.8345195 36.3518928,38.8345195 C36.8143851,38.8345195 37.2283157,38.7142715 37.5936846,38.4737755 C37.9590535,38.2332795 38.3036102,37.9095349 38.6273548,37.5025417 L38.6273548,33.3401112 C38.6273548,33.1643642 38.6897913,33.0163666 38.8146642,32.8961187 C38.9395371,32.7758707 39.0898471,32.7157467 39.2655942,32.7157467 C39.4413412,32.7157467 39.5893388,32.7758707 39.7095867,32.8961187 C39.8298347,33.0163666 39.8899587,33.1643642 39.8899587,33.3401112 L39.8899587,39.2923868 C39.8899587,39.4681339 39.8298347,39.6184439 39.7095867,39.7433168 C39.5893388,39.8681897 39.4413412,39.9306262 39.2655942,39.9306262 C39.0898471,39.9306262 38.9395371,39.8681897 38.8146642,39.7433168 C38.6897913,39.6184439 38.6273548,39.4681339 38.6273548,39.2923868 L38.6273548,38.7235213 C38.2758607,39.1120148 37.896617,39.4218847 37.4896238,39.6531308 C37.0826306,39.8843769 36.6016387,40 36.0466479,40 Z" id="Path"></path>
                <path d="M44.3715089,40 C43.4465243,40 42.6047884,39.7918785 41.8463011,39.3756354 C41.6890537,39.2646373 41.61043,39.1120148 41.61043,38.9177681 C41.61043,38.7697705 41.6613041,38.6402727 41.7630524,38.5292746 C41.8648007,38.4182764 41.9942986,38.3627773 42.151546,38.3627773 C42.2347946,38.3627773 42.3180432,38.381277 42.4012918,38.4182764 C42.6972868,38.5477743 42.9932819,38.6495226 43.289277,38.7235213 C43.585272,38.7975201 43.9182665,38.8345195 44.2882603,38.8345195 C45.3149931,38.8345195 45.8283595,38.50615 45.8283595,37.8494109 C45.8283595,37.6366645 45.710424,37.4747922 45.474553,37.363794 C45.2386819,37.2527959 44.8525008,37.127923 44.3160098,36.9891753 C43.7702689,36.8596775 43.319339,36.7255547 42.9632199,36.586807 C42.6071009,36.4480593 42.3018559,36.2376253 42.0474852,35.9555051 C41.7931144,35.6733848 41.6659291,35.3010785 41.6659291,34.8385862 C41.6659291,34.191097 41.8994877,33.6638558 42.3666049,33.2568626 C42.8337221,32.8498694 43.5020234,32.6463728 44.3715089,32.6463728 C45.083747,32.6463728 45.7543608,32.7619959 46.3833503,32.993242 C46.5128481,33.0302414 46.612284,33.0996153 46.6816578,33.2013636 C46.7510316,33.3031119 46.7857186,33.4094851 46.7857186,33.5204832 C46.7857186,33.6684808 46.7325319,33.7979786 46.6261587,33.9089767 C46.5197855,34.0199749 46.3879752,34.075474 46.2307278,34.075474 C46.1844786,34.075474 46.1243546,34.0662241 46.0503558,34.0477244 C45.5138648,33.8812272 44.9866236,33.7979786 44.4686323,33.7979786 C43.9691406,33.7979786 43.5783346,33.8881646 43.2962143,34.0685366 C43.0140941,34.2489086 42.8730339,34.4824672 42.8730339,34.7692124 C42.8730339,35.0467077 43.0025317,35.2502043 43.2615274,35.3797022 C43.5205231,35.5092 43.9228914,35.6340729 44.4686323,35.7543209 C45.0143731,35.8930686 45.4583657,36.0295038 45.80061,36.1636266 C46.1428543,36.2977493 46.4365369,36.5081833 46.6816578,36.7949285 C46.9267787,37.0816737 47.0493392,37.4655423 47.0493392,37.9465343 C47.0493392,38.5385244 46.8157806,39.0287662 46.3486634,39.4172597 C45.8815462,39.8057532 45.2224947,40 44.3715089,40 Z" id="Path"></path>
                <path d="M51.905508,40 C50.7770269,40 49.8959791,39.6785679 49.2623647,39.0357036 C48.6287503,38.3928393 48.3119431,37.4886669 48.3119431,36.3231864 C48.3119431,35.6664474 48.4321911,35.0605825 48.672687,34.5055918 C48.913183,33.950601 49.2831768,33.5019835 49.7826685,33.1597393 C50.2821602,32.817495 50.8972749,32.6463728 51.6280127,32.6463728 C52.3125012,32.6463728 52.9044914,32.8059327 53.403983,33.1250523 C53.9034747,33.444172 54.2827183,33.8696649 54.541714,34.401531 C54.8007097,34.9333971 54.9302075,35.5138249 54.9302075,36.1428144 C54.9302075,36.3185615 54.872396,36.466559 54.7567729,36.586807 C54.6411499,36.707055 54.4862149,36.767179 54.2919682,36.767179 L49.5884217,36.767179 C49.6624205,37.4146682 49.9029165,37.9187848 50.3099097,38.2795287 C50.7169029,38.6402727 51.2857684,38.8206447 52.0165062,38.8206447 C52.4049997,38.8206447 52.7449315,38.7836453 53.0363017,38.7096466 C53.3276718,38.6356478 53.6121045,38.5292746 53.8895999,38.3905269 C53.9635987,38.3535275 54.0468473,38.3350278 54.1393457,38.3350278 C54.2873433,38.3350278 54.4168411,38.385902 54.5278392,38.4876503 C54.6388374,38.5893986 54.6943365,38.7188964 54.6943365,38.8761438 C54.6943365,39.0796404 54.5740885,39.2507625 54.3335925,39.3895102 C53.9728485,39.5930068 53.6167295,39.7456292 53.2652353,39.8473775 C52.9137412,39.9491258 52.4604988,40 51.905508,40 Z M53.6814784,35.7404461 C53.6537288,35.2872037 53.5357933,34.9079601 53.3276718,34.6027151 C53.1195503,34.2974702 52.8628671,34.0731615 52.5576222,33.9297889 C52.2523773,33.7864163 51.9425074,33.71473 51.6280127,33.71473 C51.3135179,33.71473 51.0036481,33.7864163 50.6984032,33.9297889 C50.3931583,34.0731615 50.1387876,34.2974702 49.935291,34.6027151 C49.7317944,34.9079601 49.6161713,35.2872037 49.5884217,35.7404461 L53.6814784,35.7404461 Z" id="Shape"></path>
                <path d="M59.0093894,40 C58.5006479,40 58.0589678,39.879752 57.684349,39.639256 C57.3097303,39.39876 57.0229851,39.0703905 56.8241134,38.6541475 C56.6252417,38.2379044 56.5258059,37.7800371 56.5258059,37.2805454 L56.5258059,33.3401112 C56.5258059,33.1643642 56.5882423,33.0163666 56.7131152,32.8961187 C56.8379882,32.7758707 56.9882981,32.7157467 57.1640452,32.7157467 C57.3397923,32.7157467 57.4877898,32.7758707 57.6080378,32.8961187 C57.7282858,33.0163666 57.7884098,33.1643642 57.7884098,33.3401112 L57.7884098,37.1417977 C57.7884098,38.2702789 58.2971513,38.8345195 59.3146343,38.8345195 C59.7771266,38.8345195 60.1910572,38.7142715 60.5564261,38.4737755 C60.9217949,38.2332795 61.2663517,37.9095349 61.5900963,37.5025417 L61.5900963,33.3401112 C61.5900963,33.1643642 61.6525327,33.0163666 61.7774057,32.8961187 C61.9022786,32.7758707 62.0525886,32.7157467 62.2283356,32.7157467 C62.4040827,32.7157467 62.5520802,32.7758707 62.6723282,32.8961187 C62.7925762,33.0163666 62.8527002,33.1643642 62.8527002,33.3401112 L62.8527002,39.2923868 C62.8527002,39.4681339 62.7925762,39.6184439 62.6723282,39.7433168 C62.5520802,39.8681897 62.4040827,39.9306262 62.2283356,39.9306262 C62.0525886,39.9306262 61.9022786,39.8681897 61.7774057,39.7433168 C61.6525327,39.6184439 61.5900963,39.4681339 61.5900963,39.2923868 L61.5900963,38.7235213 C61.2386022,39.1120148 60.8593585,39.4218847 60.4523653,39.6531308 C60.0453721,39.8843769 59.5643801,40 59.0093894,40 Z" id="Path"></path>
                <path d="M65.6692782,39.9306262 C65.4935311,39.9306262 65.3455336,39.8705022 65.2252856,39.7502542 C65.1050376,39.6300062 65.0449136,39.4820087 65.0449136,39.3062616 L65.0449136,33.353986 C65.0449136,33.1782389 65.1050376,33.027929 65.2252856,32.903056 C65.3455336,32.7781831 65.4935311,32.7157467 65.6692782,32.7157467 C65.8450252,32.7157467 65.9953352,32.7781831 66.1202081,32.903056 C66.245081,33.027929 66.3075175,33.1782389 66.3075175,33.353986 L66.3075175,33.9228515 C66.5665132,33.5528577 66.8786955,33.2476128 67.2440644,33.0071168 C67.6094332,32.7666208 68.0834878,32.6463728 68.6662281,32.6463728 C69.1842194,32.6463728 69.628212,32.7851205 69.9982058,33.0626159 C70.3681997,33.3401112 70.6318203,33.6777306 70.7890676,34.075474 C71.3625581,33.1227399 72.2135438,32.6463728 73.342025,32.6463728 C73.8600163,32.6463728 74.2924466,32.7758707 74.6393158,33.0348663 C74.986185,33.293862 75.2428682,33.6268564 75.4093655,34.0338497 C75.5758627,34.4408429 75.6591113,34.8663357 75.6591113,35.3103283 L75.6591113,39.3062616 C75.6591113,39.4820087 75.5966748,39.6300062 75.4718019,39.7502542 C75.346929,39.8705022 75.196619,39.9306262 75.020872,39.9306262 C74.8451249,39.9306262 74.6971274,39.8705022 74.5768794,39.7502542 C74.4566314,39.6300062 74.3965074,39.4820087 74.3965074,39.3062616 L74.3965074,35.5600742 C74.3965074,34.9588342 74.2901342,34.5171541 74.0773877,34.2350338 C73.8646413,33.9529135 73.4992724,33.8118534 72.981281,33.8118534 C72.5095389,33.8118534 72.1187329,33.9344138 71.8088631,34.1795347 C71.4989933,34.4246556 71.2238104,34.7460878 70.9833144,35.1438311 L70.9833144,39.3062616 C70.9833144,39.4820087 70.9208779,39.6300062 70.796005,39.7502542 C70.6711321,39.8705022 70.5208221,39.9306262 70.3450751,39.9306262 C70.169328,39.9306262 70.0213305,39.8705022 69.9010825,39.7502542 C69.7808345,39.6300062 69.7207105,39.4820087 69.7207105,39.3062616 L69.7207105,35.5600742 C69.7207105,34.9588342 69.6143373,34.5171541 69.4015908,34.2350338 C69.1888444,33.9529135 68.8234755,33.8118534 68.3054841,33.8118534 C67.833742,33.8118534 67.442936,33.9344138 67.1330662,34.1795347 C66.8231964,34.4246556 66.5480135,34.7460878 66.3075175,35.1438311 L66.3075175,39.3062616 C66.3075175,39.4820087 66.245081,39.6300062 66.1202081,39.7502542 C65.9953352,39.8705022 65.8450252,39.9306262 65.6692782,39.9306262 Z" id="Path"></path>
            </g>
        </g>
    </g>
</svg>