<?xml version="1.0" encoding="UTF-8"?>
<svg width="20.248848px" height="20.8283002px" viewBox="0 0 20.248848 20.8283002" version="1.1" xmlns="http://www.w3.org/2000/svg" xmlns:xlink="http://www.w3.org/1999/xlink">
    <title>Shape</title>
    <g id="Auswahl" stroke="none" stroke-width="1" fill="none" fill-rule="evenodd">
        <g id="museum4.0_Desktop_Haeuser-Uebersicht_4" transform="translate(-180.055193, -125.767362)" fill="#172343" fill-rule="nonzero">
            <g id="Group-7" transform="translate(32.989583, 119.181512)">
                <path d="M160.543927,6.61561831 L166.907684,8.64039825 C167.141133,8.71303392 167.314055,8.94729454 167.314458,9.19185494 L167.314458,26.836816 C167.314458,27.1975873 166.908691,27.4951962 166.564289,27.3882727 L160.372023,25.417781 L154.179758,27.3882727 C154.068785,27.4227759 153.947315,27.4227759 153.836141,27.3882727 L147.472384,25.3634927 C147.238935,25.2908571 147.066013,25.0565965 147.06561,24.8120361 L147.06561,7.167075 C147.06561,6.80630373 147.471377,6.50869481 147.815779,6.61561831 L154.008045,8.58611004 L160.20031,6.61561831 C160.326217,6.56336009 160.466855,6.59080018 160.543927,6.61561831 L160.543927,6.61561831 Z M160.950702,7.95335017 L160.950702,24.387028 L166.157411,26.0502309 L166.157411,9.61655304 L160.950702,7.95335017 Z M159.793758,7.95335017 L154.587048,9.61655304 L154.587048,26.0502309 L159.793758,24.387028 L159.793758,7.95335017 Z M148.223292,7.95335017 L148.223292,24.387028 L153.430002,26.0502309 L153.430002,9.61655304 L148.223292,7.95335017 Z" id="Shape"></path>
            </g>
        </g>
    </g>
</svg>