<?xml version="1.0" encoding="UTF-8"?>
<svg width="34px" height="32px" viewBox="0 0 34 32" version="1.1" xmlns="http://www.w3.org/2000/svg" xmlns:xlink="http://www.w3.org/1999/xlink">
    <title>Shape</title>
    <g id="Auswahl" stroke="none" stroke-width="1" fill="none" fill-rule="evenodd">
        <g id="museum4.0_Desktop_Home" transform="translate(-262.000000, -3659.000000)" fill="#FFFFFF" fill-rule="nonzero">
            <g id="Eisntieg-emotional" transform="translate(24.000000, 594.257896)">
                <g id="News" transform="translate(238.000000, 3056.742104)">
                    <path d="M32.937077,27.1328034 L27.4492749,27.1328034 L27.4492749,9.05813797 C27.4492749,8.77726731 27.3373616,8.50821651 27.138001,8.30965029 C26.9386308,8.11145256 26.6684907,8 26.3868528,8 L1.06240312,8 C0.475420415,8 0,8.47352222 0,9.05811907 L0,35.1005657 C0.00148227955,36.3993339 0.519912518,37.6450024 1.44224615,38.5631916 C2.36459875,39.4818249 3.61486479,39.9984883 4.9192708,40 L29.6650386,40 C30.8178489,39.9985237 31.9229417,39.5401306 32.7363218,38.7263644 C33.549721,37.9125509 34.0043942,36.8097696 33.999968,35.6612299 L33.999968,28.1904312 C33.999968,27.9095605 33.8880222,27.6405097 33.6886615,27.4419435 C33.4896614,27.2437458 33.2191513,27.1322932 32.9375134,27.1322932 L32.937077,27.1328034 Z M4.91938464,37.8632779 C4.1823241,37.8618016 3.47562064,37.5713432 2.95243525,37.0542642 C2.42919294,36.5371851 2.13199707,35.8352399 2.12494854,35.1014822 L2.12494854,10.1172491 L25.3244023,10.1172491 L25.3244023,35.6627133 C25.3244023,36.4381382 25.5352607,37.1988237 25.9351015,37.863892 L4.91938464,37.8632779 Z M31.874579,35.6620992 C31.8371516,36.4238712 31.4072886,37.1122297 30.7380857,37.4827934 C30.0688353,37.8533477 29.2550472,37.8533477 28.5857683,37.4827934 C27.9165179,37.1122391 27.4866521,36.4239185 27.4492749,35.6620992 L27.4492749,29.2494195 L31.874579,29.2494195 L31.874579,35.6620992 Z M20.7553479,15.7251668 C20.7553479,16.0060375 20.6430646,16.2750883 20.4440739,16.4736545 C20.2447038,16.6718522 19.9745637,16.7833048 19.6925558,16.7833048 L6.44832873,16.7833048 C5.86134602,16.7833048 5.38592561,16.3097826 5.38592561,15.7251857 C5.38592561,15.1409385 5.861365,14.6670666 6.44832873,14.6670666 L19.6925558,14.6670666 C19.9745637,14.6670666 20.2447038,14.7785287 20.4440739,14.9770854 C20.6430741,15.1752832 20.7553479,15.4447024 20.7553479,15.7252046 L20.7553479,15.7251668 Z M20.7553924,22.6036494 C20.7553924,22.8841516 20.6430646,23.1535709 20.4440739,23.3517686 C20.2447038,23.5503348 19.9745637,23.6617874 19.6925558,23.6617874 L6.44832873,23.6617874 C5.86134602,23.6617874 5.38592561,23.1878967 5.38592561,22.6036683 C5.38592561,22.0190526 5.861365,21.5455492 6.44832873,21.5455492 L19.6925558,21.5455492 C19.9764136,21.5455492 20.2480431,21.6584852 20.4477737,21.8592623 C20.6475138,22.0600394 20.7579377,22.3316791 20.7553924,22.6143922 L20.7553924,22.6036494 Z M20.7554664,29.482132 C20.7554664,29.7626342 20.6430646,30.031685 20.4440739,30.2302512 C20.2447038,30.4288174 19.9745637,30.54027 19.6925558,30.54027 L6.44832873,30.54027 C5.86134602,30.54027 5.38592561,30.0663793 5.38592561,29.4821509 C5.38592561,28.8975352 5.861365,28.4240309 6.44832873,28.4240309 L19.6925558,28.4240309 C19.9771535,28.4236627 20.2498929,28.5373363 20.4496331,28.7392189 C20.6493732,28.9414699 20.7594271,29.2145835 20.7554664,29.4980336 L20.7554664,29.482132 Z" id="Shape"></path>
                </g>
            </g>
        </g>
    </g>
</svg>