<?xml version="1.0" encoding="UTF-8"?><svg fill="#4B58FF" id="Ebene_1" xmlns="http://www.w3.org/2000/svg" viewBox="0 0 595.28 841.89"><path d="M590.3,234.16c-.38,53.84-6.7,102.66-17.54,150.92-12.51,55.67-29.99,109.72-52.96,161.97-18.12,41.21-39.38,80.72-64.7,118-22.69,33.41-48.48,64.2-77.97,91.82-23.45,21.96-48.31,42.07-76.92,57.12-26.5,13.94-54.45,23.19-84.33,26.42-27.32,2.95-54.33,1.74-80.94-5.5-22.16-6.03-41.66-17.01-59.06-31.84-23.82-20.3-39.51-46.08-50.42-75.06-7.83-20.79-12.19-42.42-15.35-64.33-5.1-35.4-5.25-70.95-3.19-106.55,3.31-57.16,13.16-113.22,29.1-168.21,16.13-55.61,37.25-109.21,64.95-160.12,24.11-44.32,52.5-85.62,87.5-122.13,25.93-27.06,54.28-51.2,86.66-70.33,28.09-16.6,58.14-27.89,90.45-32.83,23.07-3.52,46.19-3.78,69.4-.92,29.53,3.64,56.36,13.87,80.2,31.75,18.8,14.1,33.46,31.73,44.59,52.38,11.81,21.92,18.88,45.41,23.44,69.76,5.08,27.11,7.18,54.47,7.1,77.71ZM124.45,641.62c.47,12.55,.77,25.11,1.47,37.64,.93,16.84,3.43,33.47,7.74,49.8,4.04,15.29,9.57,29.96,18.57,43.12,13.95,20.39,33.41,29.74,57.94,28.05,15.83-1.09,30.24-6.75,43.53-15.34,17.9-11.57,32.43-26.69,45.28-43.47,23.76-31.02,43.44-64.56,60.68-99.56,26.13-53.06,46.31-108.42,63.05-165.08,20.91-70.78,36.36-142.69,44.25-216.14,3.28-30.53,5.11-61.13,3.78-91.86-.79-18.14-2.77-36.1-7.24-53.72-4.28-16.87-10.38-32.95-20.99-46.98-10.91-14.41-25.3-23.19-43.27-25.38-20.78-2.53-40.09,2.43-58.12,12.78-18.93,10.86-34.31,25.78-47.74,42.72-27.2,34.32-48.88,72.04-67.46,111.59-20.65,43.94-36.98,89.51-50.82,135.98-21.69,72.84-37.01,147.01-45.5,222.57-2.73,24.35-4.3,48.77-5.15,73.28Z"/></svg>