<?xml version="1.0" encoding="UTF-8"?><svg fill="#4B58FF" id="_" xmlns="http://www.w3.org/2000/svg" viewBox="0 0 595.28 841.89"><path d="M335.88,632.93c-1.96,0-3.34,0-4.72,0-107.88,0-215.77,0-323.65,0-.75,0-1.5-.05-2.24,0-2.2,.18-2.71-.59-2.15-2.8,7.46-29.63,14.82-59.29,22.28-88.92,.34-1.36,1.2-2.76,2.2-3.76,3.69-3.68,7.68-7.07,11.3-10.82,4.78-4.97,9.23-10.26,13.98-15.27,6.26-6.62,12.67-13.1,19.02-19.64,6.02-6.2,12.04-12.4,18.05-18.61,6.28-6.47,12.57-12.94,18.85-19.42,5.69-5.87,11.38-11.75,17.07-17.62,5.95-6.14,11.91-12.29,17.86-18.43,6.41-6.61,12.83-13.21,19.24-19.81,6.28-6.47,12.57-12.94,18.85-19.41,6.41-6.6,12.83-13.21,19.24-19.81,6.35-6.54,12.7-13.08,19.05-19.61,6.48-6.67,12.96-13.34,19.44-20.01,6.48-6.67,12.96-13.34,19.45-20.01,6.67-6.87,13.34-13.74,20.02-20.61,5.95-6.13,11.91-12.27,17.86-18.4,6.28-6.47,12.56-12.95,18.84-19.42,5.96-6.14,11.92-12.28,17.87-18.42,6.34-6.54,12.69-13.08,19.03-19.61,6.08-6.27,12.17-12.54,18.25-18.81,6.22-6.41,12.44-12.82,18.66-19.23,6.02-6.2,12.04-12.4,18.05-18.6,6.48-6.67,12.96-13.34,19.44-20.02,6.22-6.4,12.43-12.81,18.65-19.22,6.22-6.41,12.43-12.81,18.65-19.22,6.09-6.27,12.18-12.55,18.27-18.82,6.35-6.54,12.7-13.08,19.05-19.61,6.28-6.47,12.56-12.95,18.84-19.42,6.28-6.48,12.57-12.95,18.85-19.43,2.76-2.85,5.45-5.77,8.33-8.49,.86-.81,2.23-1.53,3.37-1.54,13.1-.11,26.2-.01,39.3-.11,3.24-.02,2.3,1.78,1.88,3.48-8.14,32.54-16.29,65.08-24.42,97.63-26.28,105.16-52.56,210.32-78.84,315.47-9.83,39.34-19.67,78.68-29.5,118.03-.33,1.34-.56,2.7-.93,4.54,1.62,0,2.89,0,4.17,0,36.12,0,72.24,0,108.35,0q4.08,0,3.14,3.78c-7.22,28.82-14.49,57.64-21.6,86.49-.66,2.69-1.67,3.58-4.47,3.57-36.49-.1-72.98-.03-109.47-.13-2.88,0-4.03,.84-4.71,3.62-16.59,67.38-33.27,134.74-49.86,202.13-.61,2.47-1.58,3.29-4.12,3.28-30.97-.08-61.94-.05-92.91-.05-3.86,0-3.88-.01-2.94-3.72,16.34-64.66,32.69-129.31,49.03-193.96,.9-3.58,1.78-7.16,2.79-11.22Zm-234.35-93.78c1.82,0,3.12,0,4.42,0,83.08,0,166.17,0,249.25,0q4.16,0,5.15-4c19.33-77.86,38.65-155.72,57.99-233.57,8.87-35.71,17.77-71.42,26.64-107.13,.3-1.2,.42-2.46,.68-4.04-3.21,0-6.01,.14-8.79-.04-2.27-.15-3.84,.66-5.38,2.27-5.57,5.81-11.21,11.55-16.93,17.21-2.38,2.36-5.16,4.31-7.49,6.71-3.06,3.14-5.72,6.66-8.78,9.79-12.33,12.62-24.73,25.16-37.12,37.71-11.11,11.26-22.21,22.52-33.37,33.72-2.16,2.17-4.72,3.94-6.86,6.13-2.47,2.53-4.56,5.44-7.04,7.97-14.18,14.46-28.44,28.85-42.66,43.26-13.9,14.09-27.8,28.19-41.7,42.28-12.45,12.62-24.88,25.26-37.33,37.88-10.71,10.86-21.41,21.73-32.18,32.53-2.42,2.43-5.21,4.5-7.63,6.94-2.29,2.32-4.19,5.02-6.46,7.35-8.69,8.91-17.43,17.77-26.23,26.57-2.24,2.24-4.93,4.02-7.12,6.29-3.3,3.42-6.36,7.06-9.48,10.66-.64,.74-1.46,1.67-1.51,2.54-.17,3.52-.07,7.06-.07,10.97Z"/></svg>